<svg xmlns="http://www.w3.org/2000/svg" viewBox="0 0 533.33331 533.33331" height="533.33331" width="533.33331"><defs><clipPath id="a"><path d="M0 400h400V0H0z"/></clipPath><clipPath id="b"><path d="M64.6627 25.5412H322.61V0H64.6627z"/></clipPath><clipPath id="c"><path d="M0 400h400V0H0z"/></clipPath><clipPath id="d"><path d="M217.002 48.734h19.05V29.2394h-19.05z"/></clipPath><clipPath id="e"><path d="M121.289 43.587h22.216V30.6037h-22.216z"/></clipPath><clipPath id="f"><path d="M0 400h400V0H0z"/></clipPath></defs><g clip-path="url(#a)" transform="matrix(1.33333 0 0 -1.33333 0 533.33333)"><g clip-path="url(#b)" opacity=".10000598"><path d="M322.61 14.9239l-137.016 10.617-120.931-11.86L185.866-.0001z" fill-rule="evenodd"/></g></g><path d="M200.51132832 501.45119746l-34.73599913 13.609333-6.04266652-13.43066633 4.88533321-22.39733278 10.7346664-4.01466656 15.9879996 5.0493332zM332.36812502 483.49346458l-13.72266632 24.89466604-27.05599932-14.03999965-2.25333328-15.4919996 24.41733272-11.34399972z" fill="#565656" fill-rule="evenodd"/><g clip-path="url(#c)" transform="matrix(1.33333 0 0 -1.33333 0 533.33333)"><g clip-path="url(#d)" opacity=".19999701"><path d="M236.0519 48.734l-17.36-19.495-1.69 11.618 5.985 6.454z" fill-rule="evenodd"/></g><g><g clip-path="url(#e)" opacity=".19999701"><path d="M123.4636 40.5753l10.536 3.012 9.506-3.787-22.217-9.197z" fill-rule="evenodd"/></g></g></g><path d="M314.64199213 504.38466406l-23.05199942-10.03733309 1.7133333 18.7186662 72.8213315.61199999-.40666665-20.1439995-33.3493325-10.03999975zM214.23466131 522.49999694l-.38933332-21.68266613-32.0159992-3.36933325-13.83066632 14.10266632-8.26533313-9.91999975-.93333331 20.8693328z" fill="#7c7c7c" fill-rule="evenodd"/><path d="M295.93372593 345.81880135l32.24666587 97.6773309-23.39733275 21.29866613-26.71733267-2.55333327-11.9719997-36.24133243-22.5946661-14.7146663-31.70933254 50.95599873-20.44933282 12.97599968-33.6413325-15.50533295.336-97.6213309 17.63733289-48.07999879z" fill="#54b08b" fill-rule="evenodd"/><path d="M286.55719284 353.18826784l33.92666581 96.1639976-12.81066634 6.5026665-37.67066573-84.86133121zM262.86652676 393.20960017l31.0466659 67.51999831-15.84799961 1.51199996-34.56533247-50.95599872 2.58133327-40.67066565zM224.77732771 396.43746676l-25.14799937 68.41199829-13.37999966-1.37866664 21.13466614-91.45066438zM194.6054618 354.08066781l-18.60533287 111.22399722-11.6399997-4.96799987 4.25199989-83.26666459z" fill="#3f8f6f" fill-rule="evenodd"/><path d="M328.18065846 443.49586558l-50.11466541 18.7466662 11.27066638 16.61466625 45.1893322-16.14133293zM211.78986137 462.24213178l-54.09066531-2.52933327-.06133333 19.14399952 42.60799893 1.93599995zM262.86652676 393.20960017l-19.36666618 18.07599955-18.7226662-14.84799963 21.30399947-35.16399912z" fill="#36785d" fill-rule="evenodd"/><path d="M372.97999068 248.0504038l11.17599972-29.90933259 17.62266622 6.17066652 15.77066627 14.40799964-31.4439992 27.9519993z" fill="#ffe6d6" fill-rule="evenodd"/><path d="M391.27345688 238.17573738l-10.8346664-29.79199926-9.41199976.19333333 1.95333329 39.47333235 8.66799978 9.67866642zM384.15545706 218.14053788l27.57599931-28.71733262 17.45866623 16.33466626-11.6399997 32.96133251z" fill="#f5cab3" fill-rule="evenodd"/><path d="M90.41799774 315.61453544l52.82266535 35.72399911 14.39599964-28.81999928z" fill="#565656" fill-rule="evenodd"/><path d="M107.92773064 173.48440566l114.04666381 1.01733331-18.50133287 23.74266607-43.55466558 1.72266663z" fill="#c4c4c4" fill-rule="evenodd"/><path d="M160.88866264 191.17453855l-52.961332-17.69066622-4.62533322 37.54266573-.26266666 28.53599928-6.01066652 22.39599944-6.6106665 53.65599866 86.6626645 12.42666636z" fill="#7c7c7c" fill-rule="evenodd"/><path d="M206.14132818 185.5605387l-45.25199887 5.61333319-2.18799994 19.82666617-7.48533315 114.00666381 79.94666467-17.46799956z" fill="#565656" fill-rule="evenodd"/><path d="M103.30279742 211.0266714l13.253333 8.38533311 19.13066619 3.40799992-7.9399998 53.51999866-30.7186659-14.37999964 2.9186666-23.68933274 4.08266656-9.95199975z" fill="#9da1a2" fill-rule="evenodd"/><path d="M135.6867966 222.81960443l-35.7399991 15.45066628 3.35599992-27.24399932z" fill="#c4c4c4" fill-rule="evenodd"/><path d="M279.32905968 220.55280449l18.87333286 59.11866518-2.26799994 66.14799835-33.06799917 47.39066548-16.78533292-22.59599943-21.30399946 25.82266602-38.61333237-54.20799865-28.52666595-4.45066655 5.1653332-54.56933197 40.67066565-84.96399788z" fill="#728d56" fill-rule="evenodd"/><path d="M249.95506042 277.65106973l-23.24133275 63.26666508 19.36799951 14.84799963 20.65866615-14.20133298z" fill="#565656" fill-rule="evenodd"/><path d="M266.74026 341.56386813l-40.02666567-.64533332 19.36799952 29.69599926zM270.32732658 255.17560362l-20.3719995 22.47599944-19.30266618-25.3253327 21.23866614-3.72666657z" fill="#484748" fill-rule="evenodd"/><path d="M174.41132897 272.31346986V231.9508042l-15.70933294-20.95066614-38.8346657 88.91866444 27.27199932-1.39066663 15.66266628-8.64799978z" fill="#5a753d" fill-rule="evenodd"/><path d="M293.20839267 217.61200456l28.40666596 24.61866605-6.10133318 17.11999957-17.31199957 20.32133283z" fill="#3f8f6f" fill-rule="evenodd"/><path d="M321.6145253 242.23067061l37.39999906 30.34133258-6.78399983 14.07999964-35.24133245 6.21866651-18.7866662-13.19866633z" fill="#99c26d" fill-rule="evenodd"/><path d="M316.9889254 292.87026934l56.05466527-45.43199886 29.08133261 30.21333258-53.29466533 37.37599906z" fill="#728d56" fill-rule="evenodd"/><path d="M251.89186037 248.60027045l-19.9039995-35.08799912-28.51466596-15.26799962-5.36399986 76.76666475zM293.20839267 217.61200456l-33.20799917 7.03599982-8.1079998 23.9519994 46.30933218 31.07199923z" fill="#99c26d" fill-rule="evenodd"/><path d="M203.47332825 198.24413838l-44.77199888 12.75599968 15.71066627 61.3133318z" fill="#3f8f6f" fill-rule="evenodd"/><path d="M287.39839282 189.20640527l-21.30399947 17.13066624v31.93333253L293.207726 217.6117379zM211.88026137 158.28053938l-8.40666646 39.963999 24.97066605 25.97066601-1.73066663-32.42666585z" fill="#5a753d" fill-rule="evenodd"/><path d="M162.8014626 167.9024058l49.07866544-9.62133309 2.66133326-14.14399965-8.49999978-15.62933294-19.60266618 12.45333302z" fill="#35785d" fill-rule="evenodd"/><path d="M371.44012405 73.54040816l-20.50933282 43.38399892-6.55199984 54.4026653 13.56399966-9.74533309 12.34133303-2.96133326 12.66133301-6.21199984-1.93733328-68.43199829-1.45199997-8.64399978z" fill="#3f8f6f" fill-rule="evenodd"/><path d="M358.10052438 115.59014044l12.18266636 43.02933226-25.90399935 12.70666635 3.6719999-16.75599958 8.99599978-4.58266655-3.33599991-12.37866636z" fill="#99c26d" fill-rule="evenodd"/><path d="M371.44012405 73.54040816L337.1081249 197.59907173l-49.7093321-8.39333313-25.39866603 39.46133235-10.10799974 19.93333283-10.4986664-34.86266579-35.35199912-85.23066454 64.53733172-58.80399853 67.82133163-32.2079992z" fill="#ffe6d6" fill-rule="evenodd"/><path d="M325.36199187 43.6868089l46.37333217 30.17466592-16.36133292-25.31599937-16.97466625-16.38799959-11.20533305 3.19199992z" fill="#c4937d" fill-rule="evenodd"/><path d="M313.10679217 129.71614009l-8.56799978-38.62133237-10.03866642-19.38399951 25.82266602-.64533332.66933332 11.63733304zM331.98692503 84.72067455l6.41333318-9.78133309 21.94799945 10.97333306-34.00133249 30.12533258z" fill="#f5cab3" fill-rule="evenodd"/><path d="M323.52599191 131.6972067l-6.78399983 6.26933318-3.63466657-8.25066646z" fill="#c4937d" fill-rule="evenodd"/><path d="M270.5794599 69.7037416l-23.6839994 110.96533055 20.16666616 16.92933291 9.68399975 16.1399996-10.65199973 24.53199938-14.20266631 10.32933308-23.44666608-24.38533273-16.56399959-65.93333168 2.66133327-14.14399965-8.49999979-15.62933294z" fill="#f5cab3" fill-rule="evenodd"/><path d="M331.98692503 84.72067455l-8.46133312 46.97599882-10.4186664-1.97999995 7.88533313-47.01333215z" fill="#fff1e8" fill-rule="evenodd"/><path d="M270.5794599 69.7037416l-23.60933274 38.76666569-23.38933275 14.9586663 24.43733272 9.61199975-36.13733243 25.23999937-5.83866652-29.77333259 23.53199941-25.62799936z" fill="#c4937d" fill-rule="evenodd"/><path d="M338.39972487 74.93880813l14.84799963-2.58133327 7.10133316 13.55466633zM320.32292533 71.06507489l-10.97599973-7.10133316-14.8466663 7.74666648z" fill="#3f8f6f" fill-rule="evenodd"/><path d="M341.47465813 156.92040608l-32.43333252 19.96933283-30.32533258-31.03199922z" fill="#728d56" fill-rule="evenodd"/><path d="M333.391325 157.47640606l-20.2839995.70266665-26.51999933-9.27866643 17.3533329 16.03466626 12.36799969 2.07733328z" fill="#fff" fill-rule="evenodd"/><path d="M341.47465813 156.92040608l-26.58533267-8.71599979-36.17333243-2.3466666 34.3906658 13.29466633z" fill="#446125" fill-rule="evenodd"/><path d="M246.26306051 91.8600077l1.75466662 41.17999897-52.0879987 4.67999989 12.85466635-14.26133298 28.25866596-1.39199996-1.87466662-22.64933277z" fill="#99c26d" fill-rule="evenodd"/><path d="M287.39839282 189.20640527l-58.42666521-12.31733303 47.77466547 36.84933242z" fill="#c4937d" fill-rule="evenodd"/><path d="M270.5794599 69.7037416l-74.64933146 25.78399935-50.5586654 33.67999915 17.43066622 38.7346657z" fill="#3f8f6f" fill-rule="evenodd"/><path d="M140.85239648 71.71014154l125.2413302-15.6559996L220.25906116.05147666z" fill="#3f8f6f"/><path d="M140.85279648 71.71027487l-32.92533251 30.98799923 37.44399906 26.46933267 3.1026666-33.67999916z" fill="#3f8f6f" fill-rule="evenodd"/><path d="M253.16759367 52.25694203l85.23199787-14.7626663V26.154276L323.55159191.69694331 220.25826116.05027668z" fill="#72c9a6"/><path d="M338.39999154 37.4945424l42.60799893 46.4826655 23.24133276-28.40533262L323.55065858.69587665z" fill="#54b08b"/><path d="M338.39972487 37.49480906L145.3717297 129.16680677l-4.51866655-57.45599856z" fill="#54b08b" fill-rule="evenodd"/><path d="M186.16399535 342.22920144l8.44133312 11.8519997-25.99333269 22.98933277-10.57733306-14.97999963 6.3266665-17.24399957z" fill="#f5cab3" fill-rule="evenodd"/><path d="M119.867197 299.9184025l30.66933257 67.46799832 35.6279991-25.1573327-23.36266607-52.34933203z" fill="#99c26d" fill-rule="evenodd"/><g clip-path="url(#f)" transform="matrix(1.33333 0 0 -1.33333 0 533.33333)"><path d="M263.8916 322.0078c0-2.766-2.242-5.008-5.008-5.008s-5.008 2.242-5.008 5.008 2.242 5.008 5.008 5.008 5.008-2.242 5.008-5.008M231.4512 329.2706c0-2.766-2.242-5.008-5.008-5.008s-5.008 2.242-5.008 5.008 2.242 5.008 5.008 5.008 5.008-2.242 5.008-5.008" fill="#2b2b2b" fill-rule="evenodd"/></g></svg>