<svg xmlns="http://www.w3.org/2000/svg" viewBox="0 0 533.33331 533.33331" height="533.33331" width="533.33331"><defs><clipPath id="a"><path d="M0 400h400V0H0z"/></clipPath><clipPath id="b"><path d="M3.74072 15.6475H291.514V-2.94141H3.74072z"/></clipPath><clipPath id="c"><path d="M0 400h400V0H0z"/></clipPath></defs><g clip-path="url(#a)" transform="matrix(1.33333 0 0 -1.33333 0 533.33333)"><g clip-path="url(#b)" opacity=".10000598"><path d="M291.5137 7.7324l-147.699 7.915-140.074-8.205 133.829-10.384z" fill="#2b2c2b"/></g></g><path d="M1.30919997 458.03693188l8.62933311.1 19.23999952-73.0013315-13.68666632-25.8853327-10.51333307-1.78666662z" fill="#124b4e"/><path d="M328.83599178 32.74800918l-96.4079976 61.69466513-19.56133283-18.40666621-10.81999973-18.27866621 11.11733305-8.0519998z" fill="#29778c"/><path d="M156.81572941 76.9869414l-15.43733294 3.06933327-93.60666433 65.67599835 113.1973305-22.70533276.65066665-27.098666z" fill="#3ca0ba"/><path d="M160.96946264 123.0266736l71.45866488-28.5839993-30.38133257-36.68533241-23.41199942 6.17866651-21.81866612 13.05066634z" fill="#338ea5"/><path d="M196.21412843 92.10747436l-23.80133274-37.34666573 11.67733304 48.1479988 19.25599952 42.10533228 14.62933297-2.23199995z" fill="#5fbfd8"/><path d="M184.73826205 64.77080838l-15.06933296 6.69199983 14.42133297 31.44533255 12.1239997-10.79999973z" fill="#3ca0ba"/><path d="M211.48172805 53.76174199L143.5923964 82.50174127l-.97599998-28.01066597 6.37199985-38.92266569 7.06933315-5.6573332 7.33599982.32666667 30.89333256 22.60133277z" fill="#5fbfd8"/><path d="M163.39319592 10.23760974l165.44266253 22.5106661L211.4811947 53.76160867z" fill="#3ca0ba"/><path d="M148.9889296 15.56907628L47.7715988 145.73173969l95.81999761-63.23066509z" fill="#338ea5"/><path d="M145.26119637 5.1593432l3.72666657 10.40933308 14.40533298-5.33066654L159.45186268.01267667z" fill="#3ca0ba"/><path d="M78.17573138 279.30733635l9.72133309 73.4933315-1.58666663 10.11866641 5.25466654 16.85999958 16.56533292-51.77333204 5.65199986-32.53066585-15.1746663-10.41466641z" fill="#207577"/><path d="M87.89653114 352.80080118l-44.03866557 11.90533304 10.61333307 29.75333259 22.91199943 38.78133236 11.8999997-31.34266588 2.28133327-22.11999945z" fill="#379495"/><path d="M43.85813224 364.70573422l-7.93466647 27.37199931.19733333 25.09599937 41.26266563 16.06666627z" fill="#207577"/><path d="M36.12106576 417.17319957l-26.182666 40.96399898 5.55333319-98.8866642 28.36666595 5.45466653z" fill="#1a5d60"/><path d="M98.90493086 440.085999l6.4466665 44.33466556 37.69066573-5.7533332 38.5826657-12.89199967-41.75599895-16.16933293z" fill="#207577"/><path d="M105.35159737 484.42053122l27.47466598 8.33066646 15.86933293 2.08266662 32.92933251-29.05866594z" fill="#379495"/><path d="M148.69599628 494.83333096l36.99599908 25.6893327-43.39333225 2.3666666-39.39066568-2.3666666 2.44399994-36.10266577z" fill="#1a5d60"/><path d="M363.33065758 241.22000397l-36.94799907 37.3933324-17.85199956 38.38533237 50.5826654 31.14399922 16.11066627-39.42533234-1.67866663-31.59199921z" fill="#51a8aa"/><path d="M373.54559066 277.12506974h15.52133295l30.40133257-7.83333314 13.13999967 7.83333314 2.4786666 12.29866636-4.65999988 22.41599944-71.31333155 36.30399909z" fill="#73cacc"/><path d="M428.76038928 277.12506974l25.4093327-2.07999995 36.25733243 2.07999995-59.9999985 34.7146658z" fill="#f4cab4"/><path d="M363.33065758 242.21360394l-56.93066524 97.09999758-79.44933135-28.66399929-134.1946633-56.43466525 60.10533182-102.15999745 131.41866338 36.69733242z" fill="#207577"/><path d="M225.4629277 141.6413398l8.13466646 69.03066493-.99199998 40.66399899 34.61599914 6.7466665 11.6039997 5.05866653 20.42933283 2.57733327 17.35999957 7.34133315 24.00266606-37.59066572 22.71333277 6.74399983-51.7759987 88.57199778-43.14533226 161.96666262-191.0266619-59.51066518 36.39866577-137.76666322-35.60533245-16.16666626 14.57999964-25.09199938 29.15999927 11.40266639 83.41199791 2.5786666-5.85066652-47.01199883 3.86933324-76.1719981z" fill="#c3c3c3"/><path d="M113.78186382 295.47520261l73.2973315 57.52666523-24.39999939 41.1613323 58.81733187 67.04799833 60.99866514-21.7213328 21.91866612-82.0266646-154.13199615-72.89733152z" fill="#8e8f8e"/><path d="M329.11065844 42.8534756l44.93066554 32.9293325 45.42799887-5.25866653-56.13866527 171.68932904-54.8506653-12.00266637-29.65466592 32.93066585-23.60533274-40.66666565-29.75733259-80.83333131 10.91199973.89199997 6.14799984-3.27333325-4.1639999-33.4253325 31.04399923-9.61999976 4.46133322 36.99466575 16.0679996-3.86666657-12.893333-81.92666462z" fill="#fee5d6"/><path d="M329.11065844 42.8534756l-53.06266534 172.777329 31.43999921 9.91866643-15.57066627 16.36666626-13.09199968 21.2253328-6.34933317-23.01199943-11.20666639-16.85999958-35.80666577-81.62799795 17.05999957-2.28399995 19.53999952-1.78399995 9.52133309-1.6853333 19.34133285-3.77066657-10.8106664-85.1973312z" fill="#f4cab4"/><path d="M261.6653268 126.96094016l-1.58799997-15.27599962-13.09066634 1.29199997zM242.52279394 139.26040652l29.05999927-3.37199992-27.37333265 16.0679996zM357.1797244 160.18747266l-11.6039997 5.15866654-5.8533332-10.61333307z" fill="#c3927d"/><path d="M329.7057251 105.43880736l12.19866635 9.81866643-2.18133328 39.47466568 12.56399969-27.77066598 2.41333327-21.62133279zM372.2551907 111.09240722l-11.85599971 15.8679996 1.44266663 18.05333289 18.74533287-21.62266613 13.19199967-1.58666663z" fill="#f4cab4"/><path d="M275.25385979 215.23573795l-13.98533299 8.03333313 5.45599987 19.73733284 12.10133303 20.13466617 15.37199961-16.86266625 13.29066634-20.72933281z" fill="#c3927d"/><path d="M374.23959064 104.3476074l21.91866612 9.91866641-2.37999994 7.53733314-21.52266613-10.7106664zM356.78252441 98.59574087l-25.98666601-.89199998-1.09066664 7.73466647 24.99599937-.09733333z" fill="#494749"/><path d="M303.32425908 161.97333928l70.22133158 22.11866612-36.30266576 9.0253331z" fill="#c3927d"/><path d="M320.18492533 171.89187237l37.88799905 11.80266637-20.23466616 5.95199985z" fill="#fff"/><path d="M525.23825354 183.08987209H398.4702567v22.60399943l84.81466455 2.9826666 41.95333229-2.9826666z" fill="#338ea5"/><path d="M525.23825354 223.59760441l-55.69733195 2.5306666-71.07066489-2.5306666v-17.90399955h126.76799684z" fill="#5fbfd8"/><path d="M525.23825354 223.59760441H398.4702567v17.90133289l65.6453317 1.62666662 61.12266514-1.62666662z" fill="#3ca0ba"/><path d="M525.23825354 250.4518704l-62.7506651.72266665-64.01733174-.72266664v-8.95199978h126.76799684z" fill="#5fbfd8"/><path d="M525.23825354 250.4518704H398.4702567v8.77066645l69.44266494 1.35599997 57.3253319-1.35599997z" fill="#338ea5"/><path d="M525.23825354 268.17453663l-60.30933183 1.80933329-66.458665-1.8093333v-8.95199977h126.76799683z" fill="#5fbfd8"/><path d="M389.06665694 277.1253364H533.33332v-8.95066644H389.06665694z" fill="#29778c"/><path d="M518.18492038 139.77933984l-5.69599986-9.3133331-5.60666653 9.3133331 5.60666653 9.40399976z" fill="#e4c829"/><path d="M516.10665376 145.83733969h-7.14399982v38.06533238h7.14399982z" fill="#338ea5"/><path d="M492.50785435 139.77933984l-5.5173332-9.3133331-5.69599985 9.3133331 5.69599986 9.40399976z" fill="#e4c829"/><path d="M490.4266544 145.83733969h-7.05333315v38.06533238h7.05333316z" fill="#338ea5"/><path d="M441.87105562 139.77933984l-5.69466652-9.3133331-5.60666653 9.3133331 5.60666653 9.40399976z" fill="#e4c829"/><path d="M439.791989 145.83733969h-7.14133315v38.06533238h7.14133316z" fill="#338ea5"/><path d="M416.19265626 139.77933984l-5.51466653-9.3133331-5.69599985 9.3133331 5.69599985 9.40399976z" fill="#e4c829"/><path d="M414.11332298 145.83733969h-7.05333316v38.06533238h7.05333316z" fill="#338ea5"/><path d="M476.59505475 168.53053912h-29.4773326l14.6466663 14.8306663z" fill="#29778c"/><path d="M476.59505475 168.53053912l-14.8306663-14.73733296-14.6466663 14.73733296zM423.78772274 183.08987209H398.3810567l12.74933301 12.56799969 12.65733302-12.5679997h25.31599937l12.65999968 12.5679997 12.75066635-12.5679997h25.31599936l12.74933302 12.5679997 12.65866635-12.5679997H499.8303875l-12.65733301 12.5679997-12.65866635-12.5679997H449.1037221l-12.74666635 12.5679997z" fill="#5fbfd8"/><path d="M357.1797244 10.9146764l-57.2293319 5.55599985 13.193333 19.44133285 15.96666627 6.94133316 44.53466556 37.98799905-3.27466659-34.12133248z" fill="#474747"/><path d="M299.95052583 16.47134292l-47.01333215 5.95066652 16.56399958 19.83733284 13.39066633 7.43866648 46.21866552-6.84399983z" fill="#737373"/><path d="M252.93746034 22.42254277l-14.5786663 83.41333125 29.15999927-4.0679999 4.0639999 34.11999915 21.62399946-2.5786666-10.3146664-83.61066458z" fill="#494749"/><path d="M373.644524 80.84120798l-16.46533293-69.92666492 62.28933178 59.61066518z" fill="#8e8f8e"/><path d="M275.05465979 301.22786914l24.99466604 10.51199973 40.07066567 66.950665-112.87199718 63.6759984-8.72799978-15.5719996 98.09466421-55.64399862z" fill="#29778c"/><path d="M292.80985935 316.0052021l7.23999982-4.26533323-24.99466605-10.51199973 5.95199985 9.91733308 5.55466653 4.16533323z" fill="#29778c"/><path d="M281.00785964 311.14586889l11.80266637 4.85999988 35.0106658 59.8079985-8.82666645-.89333331-2.37999994-3.76933324-20.83066615-28.76266595z" fill="#e2e2e2"/><path d="M316.61452542 371.15106739l11.20666638 4.66266655-99.08399752 55.64266527-10.21733308-4.66266655 54.55199864-35.30933245z" fill="#c3c3c3"/><path d="M275.05465979 301.22786914l-106.918664 62.8826651 36.30133243 70.71599822 112.17733053-63.6759984z" fill="#3ca0ba"/><path d="M242.12759395 365.3997342L206.7182615 372.739734l-19.63866618-19.73866617 13.98533299-8.62799978z" fill="#29778c"/><path d="M227.74546097 306.58333567l-21.91999945 8.72799978-12.49866635 11.00933306 15.47333294 36.0039991 22.01866612-9.71999976 19.73866617-15.07599962z" fill="#fee5d6"/><path d="M250.55732707 337.52866823l-8.42933312 27.87066597-33.32799917-3.0746666z" fill="#c3927d"/><path d="M227.74546097 306.58333567l23.50533275 8.62933312-11.90133304 7.04266649z" fill="#f4cab4"/><path d="M203.34639492 145.0137397l-50.48533207 7.04133317-39.0786657 143.41999641 48.40266546-10.01866642 43.14266559-17.25866623 1.88666662-58.91333186z" fill="#73cacc"/><path d="M113.78186382 295.47520261l79.54533135 30.84533257 34.4186658-19.73733284-22.41733277-38.38533238zM225.4629277 141.6413398l1.78399995 69.03066493 5.35866653 40.66399899 46.21999885 11.80533303-17.5573329-39.871999z" fill="#51a8aa"/><path d="M307.48825898 225.54947103l-28.66266595 37.59199906 20.03333283 5.25599987 17.75599956 4.66266655 14.08399965-17.5573329 9.91866641-20.03333283z" fill="#73cacc"/><path d="M205.3281282 268.19786996l27.27733265-16.86133291-7.14266649-109.69466392-22.11599944 3.37199991zM316.61452542 273.05986984l15.96933293 21.72133279 30.7466659-52.56799869-22.71333277-6.74399983z" fill="#e2e2e2"/><g clip-path="url(#c)" transform="matrix(1.33333 0 0 -1.33333 0 533.33333)"><path d="M284.1758 306.936c-2.454 0-4.314-1.859-4.314-4.314s1.86-4.39 4.314-4.39c2.455 0 4.314 1.935 4.314 4.39 0 2.455-1.859 4.314-4.314 4.314M253.1563 315.416c-2.455 0-4.39-1.933-4.39-4.388 0-2.381 1.935-4.389 4.39-4.389 2.381 0 4.314 2.008 4.314 4.389 0 2.455-1.933 4.388-4.314 4.388" fill="#2a2a2a"/><path d="M266.0254 320.9946l13.166-4.314-11.307-36.821-13.092 4.091z" fill="#fff1e9"/><path d="M77.181 3.029h62.088v6.58H77.181z" fill="#124b4e"/></g></svg>