<svg xmlns="http://www.w3.org/2000/svg" viewBox="0 0 533.33331 533.33331" height="533.33331" width="533.33331"><defs><clipPath id="a"><path d="M0 400h400V0H0z"/></clipPath><clipPath id="b"><path d="M134.466 22.4717h164.765V-1.209H134.466z"/></clipPath><clipPath id="c"><path d="M0 400h400V0H0z"/></clipPath><clipPath id="d"><path d="M168.238 161.54h66.714v-59.336h-66.714z"/></clipPath><clipPath id="e"><path d="M0 400h400V0H0z"/></clipPath></defs><path d="M296.85812591 222.25907111l37.91066572 55.08933196-21.01866614 40.59866565v-17.27466624l5.18266654-23.03599942-9.02133311-15.9319996z" fill="#8e8f8e"/><path d="M363.94532423 289.92186942l13.62799966 21.97733278-15.7399996 6.5266665-34.26266581 8.73333312-14.30133298-9.21199977-1.63199996-12.09466636 4.99199988-11.90133304z" fill="#474747"/><g clip-path="url(#a)" transform="matrix(1.33333 0 0 -1.33333 0 533.33333)"><g clip-path="url(#b)" opacity=".10000598"><path d="M134.4663 10.5234l85.009 11.948 79.756-13.027-80.26-10.653z" fill="#2a2a2a"/></g></g><path d="M234.47332747 490.02866442l-8.54133312 18.52399953 6.23866651 16.41066626z" fill="#474747"/><path d="M259.23506019 498.18746421l-3.64666658-11.22933305-21.11466614 3.07066659-2.01599995 22.55599944-.28666666 5.66133319 23.80133274-5.6613332 5.37466653-8.35066645z" fill="#f4cab4"/><path d="M232.17052753 518.24613038l29.17599927-14.01199965 9.1173331 14.01199965-14.2986663 2.78399993z" fill="#707274"/><path d="M232.17066086 524.96399688h38.29333238v-6.71733317h-38.29333238z" fill="#474747"/><path d="M240.80799398 409.0273331l-7.19733315 82.6346646 23.70533274.57466666 4.03066656-88.2959978z" fill="#207577"/><path d="M317.3437254 517.19146374l-5.47199986-.192-3.55066658-21.69066612 5.18266654-14.87599963 11.23066638 8.73333311-2.87999993 8.63866645z" fill="#474747"/><path d="M343.9387914 490.5194644l-5.41599986-10.3106664-25.01866604.22399999 12.57199968 24.66533272 3.07199992 3.9359999 13.91733299-4.12666657 4.08266656-9.18666643z" fill="#f4cab4"/><path d="M329.14839177 510.3762639l17.99999955-14.6546663 16.74399958 14.6546663-18.42933287 2.78399994z" fill="#707274"/><path d="M322.04559195 497.22919757l-3.0706666 3.26133325-.38399998 7.29599982 15.16399962 9.59599976h30.13733258v-7.0066665h-25.0493327z" fill="#474747"/><path d="M325.26559187 37.6985424L268.0655933 51.90254203l-51.44266538 18.81199953 4.22266656 23.60933274 13.533333 27.64133264-5.95199986-.28933333-4.22266656 7.00799983-6.6226665-12.38133302-5.37466653-5.37466654-8.54133312 4.12666657-9.2133331 10.36533307 2.6866666 6.3346665 7.58266647 8.82933312 6.8146665 9.98133309 27.25733265 60.55999848 47.98666547 9.2133331-.384-27.8319993 4.41466656-18.52399954 20.63466615-7.58133314 30.71199924-8.92533311-3.26133326-57.29866523z" fill="#fee5d6"/><path d="M263.8423934 110.54360724l8.44533313-19.86666617 22.5546661-.57599999 13.33999967 33.49599916-9.97999976-45.68533219-23.32266608 1.3453333-13.91733298 10.84399973-5.75866653 10.07733308zM333.13665834 73.68880816l-15.06933296 10.9426664-.95866664 20.15333282-13.82133299-31.28799922z" fill="#f4cab4"/><path d="M258.4674602 119.75787367l47.69866548-1.43999996-.57466665-6.7186665zM338.99092486 102.28974078l-19.38666618 13.05199967-1.72799996-7.10266649z" fill="#f4cab4"/><path d="M231.8827942 66.10747501l20.53733282 17.85066622 6.04799985 35.7999991 4.12666657 53.84266533 24.18533272 46.7386655-22.1706661-2.01466662-25.81599936-7.19866648-27.25733266-60.5599985 14.97199963-8.8293331-2.30399994-13.05333301 10.17466641-6.7186665-17.75599956-51.25066538z" fill="#f4cab4"/><path d="M211.53586138 150.56573957l14.97199962-8.82933311-4.51066655 31.95866586zM342.15759145 157.47520606l-93.47866433 18.33199954 24.28133272 41.8453323 5.75866653 3.64666657 8.06133313-.95999998 4.03066656-46.35599884z" fill="#c3927d"/><path d="M260.9629268 71.19467489l15.35599963 8.73333311 21.21066613-5.56666653zM305.59119236 65.6269417l11.13333306-12.4759997 9.4053331 2.01599995z" fill="#2a2a2a"/><path d="M297.52999256 74.3606748l10.65199974 49.23599878 12.957333-1.91999996-11.9959997-49.04266544z" fill="#fff1e9"/><path d="M308.18225896 123.59640691l6.9106665 6.9106665 6.04666651-8.83066645z" fill="#c3927d"/><path d="M271.42452655 139.14453985l28.88799928-.19199999 14.20533297 5.95066652-18.23599954.86266664-11.0386664-1.05466664-2.97333325-.47999999-3.55066658-2.2066666z" fill="#29778c"/><path d="M278.3346597 141.92773979l7.19733316 7.87066647 28.98666594-4.89466655-29.27466593-.19333333z" fill="#3ca0ba"/><path d="M203.9543949 129.0677401l6.62133317-6.7186665 7.00666649 10.46133308z" fill="#c3927d"/><path d="M325.26559187 37.6985424l-53.457332-36.08533244 1.72799996 27.15999932 7.48399981 22.36133277z" fill="#474747"/><path d="M271.80852654 1.61267663l-86.95333116 29.75066592-6.33466651 15.16533295.384 12.76399968 18.4266662 7.58266648 19.29066618 3.83866657 15.26133295-4.60666655 49.1373321-14.97199963z" fill="#737373"/><path d="M178.90492886 59.29294185l-3.6479999 9.2133331.95999997 7.1026665-6.81333317 40.6933323 30.13466592-4.79866654 27.54533264-10.46133307-10.46133307-30.32799924z" fill="#474747"/><path d="M169.4029291 116.3028071l57.67999856-15.25999963 7.29466648 20.92266615-10.17333308 6.7186665-11.99733303-17.75599956-17.75466622 14.49199964 10.26933307 15.16399962zM176.1203956 75.80014144l-28.59999929-2.5906666 14.39599964-18.90799953 22.9386661-22.93733276-5.95066652 27.92933263z" fill="#333"/><path d="M184.85479538 31.36387588l-35.70266578-18.6186662-25.3373327 85.80133119 23.70533275-25.3373327z" fill="#737373"/><path d="M238.79292736 211.12560472l58.06533189 11.13333306-5.95199986 14.20533298-12.76266634 16.50666625-31.48133255-15.64399961-19.48266618-19.19599952z" fill="#474747"/><path d="M227.17972765 218.13147121l-19.38666618 9.88533309 7.77333314 27.06533266 12.76533302 27.44933264 11.03733305 4.41466656 39.25333235 4.03066657 40.30933233-13.33999967-22.07333278-55.37733195-18.7146662 30.71199923z" fill="#73cacc"/><path d="M228.3319943 282.53120294l90.59999773-4.89466655-9.01999978 64.87866505-29.46666593 1.63199996-35.50933244-5.47066653z" fill="#207577"/><path d="M244.93559388 338.6770682l30.13599924 35.99066577 18.33066621 11.7079997 15.64399961-14.58799963.86533331-29.27199927z" fill="#73cacc"/><path d="M244.93559388 338.6770682l48.46666545 47.69866547 5.27866654 54.7066653-41.36399897 51.1546654-34.83999913-114.40266382z" fill="#379495"/><path d="M309.91145892 342.51560144l16.02666626 75.91733143-13.437333-8.1599998-19.09866618-23.89733273z" fill="#51a8aa"/><path d="M293.40239266 386.376267l32.53466586 32.0559992 12.58666635 61.77599846-81.20666464 12.02933303z" fill="#207577"/><g clip-path="url(#c)" transform="matrix(1.33333 0 0 -1.33333 0 533.33333)"><g clip-path="url(#d)" opacity=".19999701"><path d="M168.2385 112.0889l3.01-9.885 63.055 54.226.649 5.11-57.729-27.064z" fill="#2a2a2a"/></g></g><path d="M207.79292814 228.01693763l-45.3973322 73.4213315 24.66666605-4.2239999 17.46666623-7.9639998 23.70666607-6.91066649z" fill="#8e8f8e"/><path d="M204.62559488 289.25000277l12.2839997 42.99599892-8.92533311 7.39066649-9.97999975.76799998-35.60799911-38.96533236z" fill="#474747"/><g clip-path="url(#e)" transform="matrix(1.33333 0 0 -1.33333 0 533.33333)"><path d="M147.4941 118.8545c-1.223-.646-2.591-.216-3.311.936-.575 1.153-.144 2.591.936 3.168 1.224.647 2.663.215 3.312-.936.647-1.079.215-2.592-.937-3.168m-13.028 10.078l9.07-16.844 165.125 89.33-9.142 16.843z" fill="#5fbfd8"/><path d="M302.8311 212.2153l-165.197-89.33-3.168 6.047 165.053 89.329z" fill="#73cee3"/><path d="M143.2476 125.9814l-1.872-1.007-3.31 5.974 2.015 1.151zM146.7749 130.5156l-.864-.432-2.16 3.959.864.433zM151.3818 133.0361l-.864-.504-2.159 4.031.864.432zM155.9883 135.5557l-.863-.576-2.16 4.03.863.504zM162.6826 136.4912l-1.872-1.08-3.31 6.046 2.015 1.08zM166.2813 141.0254l-.935-.503-2.16 3.959.865.575zM175.4238 145.9922l-.864-.432-2.16 3.959.864.432zM182.1182 147l-1.872-1.008-3.311 6.047 2.016 1.008zM185.7168 151.5352l-.935-.432-2.232 3.959 1.007.432zM190.252 154.0547l-.864-.576-2.16 4.102.864.433zM194.8589 156.501l-.864-.504-2.16 3.959.864.576zM201.625 157.5088l-1.944-1.079-3.239 6.047 1.871 1.079zM205.1523 162.0449l-.937-.505-2.159 3.959.936.576zM209.7588 164.4912l-.864-.432-2.159 3.959.863.504zM214.293 167.0117l-.863-.433-2.16 3.959.864.432zM221.0605 168.0186l-1.872-1.007-3.312 6.046 1.871 1.008zM224.5156 172.5537l-.864-.432-2.16 3.958.864.433zM229.1934 175l-.936-.504-2.159 4.104.936.431zM233.7285 177.5205l-.864-.504-2.159 3.959.864.576zM240.4941 178.4561l-1.871-1.008-3.311 6.046 1.943 1.08zM243.9492 183.0625l-.863-.504-2.159 3.959.863.504zM248.6279 185.5107l-.936-.433-2.159 3.96.937.503zM253.2354 188.0293l-1.008-.432-2.159 3.959 1.008.432zM260.2178 189.1816l-1.871-1.08-3.313 6.046 1.872 1.008zM263.6729 193.7158l-.864-.503-2.159 4.029.864.433zM268.3516 196.2354l-.936-.576-2.159 4.031.935.504zM272.959 198.6104l-.937-.432-2.159 4.032.864.504zM279.6523 199.6904l-1.872-1.08-3.311 6.046 1.945 1.08zM283.1074 204.1528l-.863-.432-2.159 3.959.863.577zM287.7871 206.6729l-.936-.433-2.16 3.96.936.432zM292.3926 209.1924l-.863-.504-2.159 4.031.863.431zM299.0879 210.2002l-1.872-1.008-3.312 5.974 1.945 1.008z" fill="#338ea5"/><path d="M293.9043 180.6875l6.767 8.351-4.392 3.022-5.542-3.959.072-4.247z" fill="#f4cab4"/><path d="M148.5029 144.6963l10.364-24.329 8.927 2.518 15.393 10.654-20.504 17.276z" fill="#fee5d6"/><path d="M183.1871 133.5396l-24.32-13.172 9.371-8.279z" fill="#c2937c"/><path d="M293.9043 180.6875l-9.717-16.196-12.812-3.311-3.816 7.126 9.071 11.877z" fill="#c3927d"/><path d="M286.6348 197.6025l-14.973-10.365-4.102-18.931 26.345 12.381z" fill="#fee5d6"/><path d="M249.0713 335.7651c0-2.015-1.655-3.671-3.743-3.671-2.015 0-3.671 1.656-3.671 3.671 0 2.016 1.656 3.671 3.671 3.671 2.088 0 3.743-1.655 3.743-3.671M215.108 327.2407c0-2.087-1.656-3.742-3.671-3.742-2.016 0-3.672 1.655-3.672 3.742 0 2.016 1.656 3.672 3.672 3.672 2.015 0 3.671-1.656 3.671-3.672" fill="#2a2a2a"/><path d="M241.6935 325.3991l-4.384 16.078 21.468 5.487 2.808-15.188zm-45.971 7.025l23.695 5.386 3.541-16.399-25.077-4.319zm67.518 21.738l-73.925-17.131 4.535-26.849 35.343 6.118-4.895 22.615 8.7 1.945 5.409-22.04 30.016 8.422z" fill="#338ea5"/></g></svg>