<svg xmlns="http://www.w3.org/2000/svg" viewBox="0 0 533.33331 533.33331" height="533.33331" width="533.33331"><defs><clipPath id="a"><path d="M0 400h400V0H0z"/></clipPath><clipPath id="b"><path d="M75.5779 21.6094H361.014V0H75.5779z"/></clipPath><clipPath id="c"><path d="M0 400h400V0H0z"/></clipPath></defs><g clip-path="url(#a)" transform="matrix(1.33333 0 0 -1.33333 0 533.33333)"><g clip-path="url(#b)" opacity=".10000598"><path d="M75.5779 7.6798l119.015 13.93 166.421-11.335-165.361-10.275z" fill-rule="evenodd"/></g></g><path d="M216.51226125 433.03799917l19.29466619 26.07466602 26.86933266-6.7386665 19.59199951-15.87866627-21.3973328-81.94399795-37.22266573 56.78399858z" fill="#795d88" fill-rule="evenodd"/><path d="M235.8071941 459.11319852l23.64933275 33.64666583 29.25599927-6.96533316 4.73199988-7.41066648-11.17599972-41.88799896z" fill="#594265" fill-rule="evenodd"/><path d="M156.94959608 355.73666777l103.92133073-1.1853333-37.22266573 56.78399858-32.17466587-14.93333296z" fill="#9075a0" fill-rule="evenodd"/><path d="M223.64772774 411.33599972l-9.78399975 41.0373323-27.04799933 11.1826664-27.04933265-9.84799976-11.21733306-54.63199864-2.18799994-22.1866661 10.58799973-21.15199948z" fill="#a588b9" fill-rule="evenodd"/><path d="M213.86412799 452.37373202l-8.69199979 36.95599908-16.24133292 8.39333312-21.2533328-1.4333333-7.9119998-42.58133226z" fill="#795d88" fill-rule="evenodd"/><path d="M205.1725282 489.32959777l11.86533304 27.71333264-24.58399938 2.66933326-25.4293327-2.66933326.65333331-20.75333282zM293.44425933 478.38439804l33.88399915 31.91466587-39.31866568 2.66799993-27.91733264-2.66799993-.63466665-17.53866623z" fill="#96637c" fill-rule="evenodd"/><path d="M217.0373279 525.76266352h-50.01333208v-8.71866645h50.01333209zM327.32932515 519.01733036h-67.23599832v-8.71866645h67.23599832z" fill="#543042" fill-rule="evenodd"/><path d="M147.99146297 210.04893808l60.90666514 63.00933176 16.97599958-65.81199835-40.263999-6.35733318z" fill="#fefefe" fill-rule="evenodd"/><path d="M224.47852772 55.16934195l14.35733298-15.52533294 16.33733292-3.07733326 23.71733274 130.21866341-42.90533226 10.90933306-51.03733206 3.50799992-24.80133271-88.5039978-4.96266654-41.71466561 35.35733245-4.28133323z" fill="#ffe6d6" fill-rule="evenodd"/><path d="M215.64212794 187.01600532l63.24933175-20.23066616-93.94399765 17.08666624-19.07733285-95.21333095-10.6866664-37.6733324-20.92799948 25.5773327 5.92799985 19.85333284 14.5346663 24.3279994-6.54933316 1.75466661-3.68266658 7.08133316-7.72133314-5.55999986-6.22933318-13.50666633-6.93466649 10.6386664-8.41466646 4.70799988 12.48266636 10.27599975 5.65599986 12.51066635 3.60933324 7.8679998 1.86266662 15.7839996 8.94666644 38.66933238 78.13066472-3.72133324z" fill="#f5cab3" fill-rule="evenodd"/><path d="M262.06719345 74.42094147l6.12799985-45.29466553-23.20533276 3.76266657z" fill="#474747" fill-rule="evenodd"/><path d="M267.38999332 220.80667115l13.58666632 40.65199898-3.97466657 37.71066572-25.09066603 17.48799957-1.36666664-61.07333181z" fill="#b3889d" fill-rule="evenodd"/><path d="M271.84412654 292.05466937l5.1573332 7.11466648 28.74533262 3.41199992-5.55866653 29.3373326-44.26266556 2.26133328-2.8986666-32.69466585z" fill="#96637c" fill-rule="evenodd"/><path d="M270.68412657 296.24453593l-1.63866663 15.29999961 20.33333283 19.22799952 16.36799959-28.19066596-15.16399962-2.25199994z" fill="#734d61" fill-rule="evenodd"/><path d="M286.27119284 283.28160292l-7.47199981-8.0479998 27.32933265-35.42133245 6.77599983 6.3546665-11.09066639 19.0226662-4.48933322 13.79066632z" fill="#f5cab3" fill-rule="evenodd"/><path d="M286.27119284 276.59346975l22.42933278 23.0466661-16.1279996 16.06133292-12.20133303-10.84533306z" fill="#f5cab3" fill-rule="evenodd"/><path d="M280.97719298 261.4581368l-7.33199982.24933332-2.96133326 34.53733247 9.68666642 8.61066646 5.90133319-21.5733328z" fill="#ffe6d6" fill-rule="evenodd"/><path d="M286.27119284 283.28160292l15.54266628-18.09199955 15.8039996 26.07999935-11.8719997 11.31199972z" fill="#fff1e8" fill-rule="evenodd"/><path d="M177.04239557 83.07374126l28.55466596 14.81999963 16.55599958 28.89599927-1.97866661-26.88133266-4.5319999-14.50933297zM233.31519417 73.30707483l-4.18666656 10.23199975-.63866666 10.61333307 5.35999987 12.99866634 23.64933274-38.4946657-11.16266639-12.55733303z" fill="#f5cab3" fill-rule="evenodd"/><path d="M215.64212794 85.3989412l-36.27466576-11.16133306-2.32533327 8.83599978 32.0879992 10.23199975zM229.1289276 67.72667497l17.20799957-11.62666637 11.16133306 12.55733302-6.51199984 5.11599987-7.67333314-8.83599978-9.99733308 8.36933312z" fill="#474747" fill-rule="evenodd"/><path d="M229.1289276 83.53854124l7.90666647 39.53066568-6.3106665 4.27066656-8.57199979-.54933332-6.5106665-41.39199896z" fill="#fff1e8" fill-rule="evenodd"/><path d="M251.9115937 147.9652063l-28.1959993 1.89066662-21.93199944-6.68799983 3.60266657-8.72266645-12.06133303 7.70533314 3.13333326 15.11866629 4.22933322-8.1399998 23.02799943 6.6866665z" fill="#c4937d" fill-rule="evenodd"/><path d="M144.48679639 129.58000676l3.25599992 7.44133315-14.41733298 11.62533304-18.13866621-22.7866661 15.34933295-15.34666628z" fill="#ffe6d6" fill-rule="evenodd"/><path d="M221.66866112.00054333l-3.58666657 30.16666592 6.39599984 25.00266604 43.71733224-26.04266602L221.96332778.00054333z" fill="#737373"/><path d="M221.23066114.00054333L100.7693308 45.40320886l26.08666602 7.9679998 28.32799929-2.3866666 69.2933316 4.18533323L221.6973278.00054333z" fill="#8f8f8f"/><path d="M100.77053081 45.4041422l-4.65066655 70.68933156 21.10266614-17.80933288 17.03333291-21.7213328 20.92799948-25.57866602z" fill="#737373" fill-rule="evenodd"/><path d="M134.25546331 76.56307475l20.46266616 44.18133223-10.23199975 8.83599978-13.95066632-19.06799952-15.34799961 15.34799961-19.06799953-9.76666642z" fill="#474747" fill-rule="evenodd"/><path d="M123.55866358 126.79000683l5.5813332-5.5813332 6.97466648 11.62799972zM133.32519667 148.64707295l10.23199974-8.37066646-4.58933322 32.75733252zM237.03586074 123.06934026l-6.5106665 10.69733306-8.3719998-6.97733316z" fill="#c4937d" fill-rule="evenodd"/><path d="M147.99146297 210.04893808l57.41466523 42.75599893-33.03199918 26.24799935-40.67066565 25.05866604-13.81733298-31.54533255-9.3933331-40.93599897zM225.87359435 207.24653815l41.51599897 13.55999966-12.65733302 42.10266562-23.34133275 4.99066654-25.98399935-15.09466629z" fill="#96637c" fill-rule="evenodd"/><path d="M131.70306337 304.11146906l11.29866639 39.64799901 13.94799965 11.97733304 59.80933184 6.12533318.27866666-59.27999852-11.63199971-49.77733209z" fill="#734c5f" fill-rule="evenodd"/><path d="M205.40626153 252.80480368l49.32666544 10.10533308 6.13733317 91.63999771-44.1119989 7.31199982z" fill="#543042" fill-rule="evenodd"/><g clip-path="url(#c)" transform="matrix(1.33333 0 0 -1.33333 0 533.33333)"><path d="M187.974 334.2524c0-2.337-1.894-4.231-4.231-4.231-2.337 0-4.232 1.894-4.232 4.231 0 2.337 1.895 4.231 4.232 4.231s4.231-1.894 4.231-4.231M154.1975 326.5797c0-2.337-1.895-4.231-4.231-4.231-2.337 0-4.232 1.894-4.232 4.231 0 2.337 1.895 4.231 4.232 4.231 2.336 0 4.231-1.894 4.231-4.231" fill="#2b2b2b"/><path d="M126.6294 262.5389l82.539 12.372-39.763-17.44v-12.906z" fill="#c4937d" fill-rule="evenodd"/><path d="M92.0327 167.7467l25.68-34.549-15.884-19.008-26.384 22.788z" fill="#96637c" fill-rule="evenodd"/><path d="M111.4116 100.6934l-9.583 13.496 15.884 19.008z" fill="#ffe6d6" fill-rule="evenodd"/><path d="M81.3696 226.2773l-22.965-74.704 17.04-14.595 23.333 34.938z" fill="#b3889d" fill-rule="evenodd"/><path d="M296.8383 181.2065l-15.763-2.842-.599 59.819 2.957 4.605 4.524 3.283z" fill="#96637c" fill-rule="evenodd"/><path d="M287.9574 246.0712l-7.481-7.888-32.783 28.49.259 3.186 3.032 1.387zM242.601 284.9223l-4.73-7.711-5.776-6.827-5.424 9.224 5.625 7.819z" fill="#b3889d" fill-rule="evenodd"/><path d="M242.601 284.9223l-10.506-14.538 18.075-5.863 3.563 4.853z" fill="#96637c" fill-rule="evenodd"/><path d="M328.4994 10.6948l-34.571 5.956-40.524-5.956v132.076l2.977 10.411-2.977 18.745 75.095 19-3.435-53.335 3.435-47.886-4.35-44.391z" fill="#9075a0" fill-rule="evenodd"/><path d="M328.4994 190.9272l-75.095-17.884v-30.272l75.095-53.066z" fill="#594165" fill-rule="evenodd"/><path d="M343.1517 179.1821l-104.4-26v18.352l104.4 26zM328.4994 89.7055l-75.095-79.011h75.095z" fill="#785d88" fill-rule="evenodd"/></g></svg>