<svg xmlns="http://www.w3.org/2000/svg" viewBox="0 0 533.33331 533.33331" height="533.33331" width="533.33331"><defs><clipPath id="a"><path d="M0 400h400V0H0z"/></clipPath><clipPath id="b"><path d="M92.8806 20.5116H307.703V0H92.8806z"/></clipPath><clipPath id="c"><path d="M0 400h400V0H0z"/></clipPath></defs><g clip-path="url(#a)" transform="matrix(1.33333 0 0 -1.33333 0 533.33333)"><g clip-path="url(#b)" opacity=".10000598"><path d="M92.8806 7.0056l118.095 13.506 96.728-11.257-99.051-9.255z" fill-rule="evenodd"/></g></g><path d="M300.84759248 214.30333798l60.08133183 63.14133175-5.75466652 11.96133303-34.43199914-13.225333-18.99999953-16.22933293 2.12399995-27.6839993z" fill="#ffe6d6" fill-rule="evenodd"/><path d="M320.74279198 276.18013643l67.15599832-16.2279996 5.4293332 4.96799988 1.22399997 14.3386663-42.15599895 20.27333284z" fill="#f5cab3" fill-rule="evenodd"/><path d="M394.51732347 262.55200344l16.75999958-15.25066629 6.99199983 11.81333304-5.4733332 18.46533287-18.24399954 1.67866663-2.9546666-8.57199979z" fill="#c4937d" fill-rule="evenodd"/><path d="M430.77078923 293.57120266l-10.05333308 3.98533323-10.9026664-27.49733264-2.05199994-6.5946665-6.5586665-15.12533296-5.7813332-14.57999963 10.05199975-3.9879999 5.66799986 14.29733297 6.7466665 19.07599952 3.7119999 7.30133316z" fill="#9e7700"/><path d="M424.68638938 278.22706971l-11.88933303-.64799998-17.37466624-43.8199989 10.05199975-3.9879999z" fill="#755800"/><path d="M410.43638974 242.28773728l11.77333304-2.09599995 10.36933307 25.3733327-15.09733295 9.4133331-6.81333317-13.66666633z" fill="#f5cab3" fill-rule="evenodd"/><path d="M387.8983903 259.9516035l3.69999991 10.7346664 10.05199975-5.65466653 2.51199994-8.43733312 7.90533313 7.52266648 6.03599985-1.97333328-7.66666647-19.8559995-9.87599976 4.43066655z" fill="#ffe6d6" fill-rule="evenodd"/><path d="M415.98385627 229.90827092l-15.08799963 3.11599992-13.03466634 8.03466647-14.83599963-12.09733303 20.77866615-11.10799973 24.69599938-6.92266649z" fill="#ccad14"/><path d="M418.49958954 210.93040473l-45.4733322 18.03066621-3.11066659-7.84533313 22.01866612-11.59733305 23.45599941-6.43333317z" fill="#9e7700"/><path d="M415.39025628 203.08507159l-45.47466553 18.03066622-3.11066659-7.84666648 21.39599947-11.35333304 24.07866606-6.67733317z" fill="#e5c82e"/><path d="M412.27772303 195.23760512l-45.47466553 18.03066621-3.1106666-7.84666647 22.01599946-11.5959997 23.45999941-6.43466651z" fill="#9e7700"/><path d="M394.32999014 175.29560562l-13.43199966 8.19466646-14.68799964 2.95599993-2.51733327 18.97599952 45.47599887-18.03066621z" fill="#ccad14"/><path d="M387.86145697 241.05880397l7.90133314-21.1133328 20.22133282 9.96266642zM366.20959084 186.44613867l20.2199995 9.96133309 7.8999998-21.11199948z" fill="#9e7700"/><path d="M195.0014618 188.59453862l48.63866544 2.43333327v-41.49866563z" fill="#2b2b2b" fill-rule="evenodd"/><path d="M180.89426214 78.22760804l-32.04133253 48.63199879 47.45599882-11.75733304z" fill="#7a7a7a" fill-rule="evenodd"/><path d="M254.59879364 523.99253023l-45.6613322-.95999997-1.95866661-13.633333h21.68799945z" fill="#755800" fill-rule="evenodd"/><path d="M224.90359438 227.07840432l-37.87866572 52.89333201 13.30799967 8.69466645 25.82133268-8.69466645 2.86799993-38.53599903z" fill="#ffe6d6" fill-rule="evenodd"/><path d="M226.15439435 279.972403l-70.56533157-20.96266614-5.69066653 4.66533321-2.00266661 14.25199965 46.32133217 22.82399943z" fill="#f5cab3" fill-rule="evenodd"/><path d="M318.78052536 490.8798644l-40.80399898-23.24533276 5.85066652-12.64533301 20.28533283 17.63066622z" fill="#755800" fill-rule="evenodd"/><path d="M252.69199368 437.60639906l35.7879991-14.41599964 22.19866612-47.50133215-71.19066489 17.97333289z" fill="#856400" fill-rule="evenodd"/><path d="M310.21519224 443.94866557l12.41066636 42.36933227-5.6213332-1.34399996-6.46399983-3.33599992-17.73999956-17.43466623-3.13333325-10.54799974 4.33866656-8.67866645 7.7359998-14.12266631z" fill="#ffe6d6" fill-rule="evenodd"/><path d="M318.87759203 377.08986724l-8.66266645 66.858665-16.2079996 1.02799997-5.52666653-21.78533279 14.59333297-48.93333211z" fill="#f5cab3" fill-rule="evenodd"/><path d="M229.02279427 472.98279818l-2.17999994 18.52533287 29.49599926 26.77599933-6.77199983 2.30399994-27.25333265-6.5226665-10.97999973-7.81466648-2.37199994-11.92266636z" fill="#ffe6d6" fill-rule="evenodd"/><path d="M240.81786065 462.36653177l-13.97466632 29.1413326-17.88133289 2.81999994 5.43199987-41.29599897 6.93999982-12.14266636z" fill="#f5cab3" fill-rule="evenodd"/><path d="M214.68879463 452.91399868l26.12933268 9.45199976 11.87333304-24.75999938-22.78533276-6.75199983zM284.60599288 407.91613314l3.87466657 15.27466628 30.39733258-46.09999885-24.0239994-9.16799977z" fill="#c4937d" fill-rule="evenodd"/><path d="M224.67772772 226.35933767l76.16933143-12.0559997-23.79733274 38.49333238z" fill="#ffe6d6" fill-rule="evenodd"/><path d="M224.67772772 226.35933767l1.47599996 53.613332 36.55866575-17.7213329 14.02399965-15.06799962zM276.73692641 247.18360382l24.11066607-32.87999918 19.89466617 61.87599846-31.99866587-9.5133331z" fill="#9e7700" fill-rule="evenodd"/><path d="M226.15439435 279.972403l1.09599997 34.47199914 49.6293321 47.84133214 43.86266556-86.10533118-44.00533223-28.99733261z" fill="#755800" fill-rule="evenodd"/><path d="M230.78892756 331.9664017l88.0879978 45.1253322-68.16933163 61.3133318-15.99866626-2.68933326-39.1586657-83.28399792z" fill="#e5c82e" fill-rule="evenodd"/><path d="M195.54986178 352.43133452l57.14266524 85.17466454-38.29866571 15.42666628z" fill="#ccad14" fill-rule="evenodd"/><path d="M148.83866295 261.2461368l-15.90666627-16.13866626-7.62266648 11.41466638 4.45999989 18.73599953 18.12533288 2.66799994 3.41733325-8.39866646z" fill="#c4937d" fill-rule="evenodd"/><path d="M110.95253056 290.24880274l9.82133309 4.52666656 12.38133302-26.86399933 2.40799994-6.47333317 7.37066648-14.7466663 6.56533317-14.24533298-9.81999975-4.52799988-6.43599984 13.96799965-7.77466647 18.68133286-4.10266657 7.08799983z" fill="#9e7700"/><path d="M117.86199705 275.25800312h11.9079997l19.72933285-42.8106656-9.81999976-4.52933322z" fill="#755800"/><path d="M134.04466332 240.14653733l-11.64133305-2.73333327-11.73333304 24.77333272 14.5626663 10.21866641 7.54533315-13.27599967z" fill="#f5cab3" fill-rule="evenodd"/><path d="M155.58906278 259.0094702l-4.27733323 10.51733306-9.73066642-6.19199984-2.04933328-8.56133312-8.30266646 7.08133315-5.91999986-2.2986666 8.73599979-19.40933285 9.61866642 4.9613332z" fill="#ffe6d6" fill-rule="evenodd"/><path d="M129.17839677 227.48373765l14.89599963 3.93066656 12.57866635 8.73199979 15.47199961-11.27333306-20.1439995-12.21999969-24.28266605-8.2559998z" fill="#ccad14"/><path d="M127.6979968 208.39720479l44.42666556 20.47599949 3.53199992-7.66399981-21.35466614-12.77866635-23.07333275-7.69866647z" fill="#9e7700"/><path d="M131.22919672 200.73253832l44.42799889 20.47599948 3.53199991-7.66533314-20.74666615-12.49999969-23.6799994-7.9759998z" fill="#e5c82e"/><path d="M134.76372996 193.06587184l44.42666556 20.47599949 3.53333325-7.66533314-21.3533328-12.77733302-23.07599943-7.69866647z" fill="#9e7700"/><path d="M153.76892949 174.12893898l12.96666634 8.91333311 14.50533297 3.74933324 1.48266663 19.08533286-44.42799889-20.4759995z" fill="#ccad14"/><path d="M156.65306275 240.14653733l-6.7426665-21.51066613-20.73199948 8.84799978zM181.24159547 186.79173866l-20.73199948 8.84666645-6.73999983-21.5093328z" fill="#9e7700"/><path d="M397.87359005 120.10347366l-1.26266663 23.19333276-32.44933252-1.4653333 7.17599982-37.31066573z" fill="#2b2b2b" fill-rule="evenodd"/><path d="M387.46039031 70.31680824l24.3839994 40.78133232-26.95599933 7.69333314-10.81599973-7.38133315-4.33866656-31.52799921z" fill="#5c5c5c" fill-rule="evenodd"/><path d="M411.84372304 111.09880722l-37.77066573.31066666-19.16666618 11.37733305 9.25599977 19.04399952zM148.85252961 126.85960683l60.81466515 28.47333262 30.12399925 3.21066659 1.03199997-35.73599911-16.14533293-27.58933264z" fill="#484748" fill-rule="evenodd"/><path d="M364.3139909 119.96774033l10.25733307 36.80266575-24.99199938 8.42533312 4.2519999-13.049333 6.61199983-2.30799995-2.6386666-9.88933308-1.83333329-7.61866648z" fill="#856400" fill-rule="evenodd"/><path d="M236.1243941 127.59307348l7.56933314 43.5759989 13.99333298 40.13866567 25.36266604 1.6613333 14.88933296-17.73866623 44.31333222 13.84933299 45.20799887-138.7626632-107.18133065 25.89466602z" fill="#ffe6d6" fill-rule="evenodd"/><path d="M282.35799294 127.02534016l-14.20399964 61.20799847 29.78399925 6.99733316-17.4893329 20.67866615-1.66266662 15.01733295-31.81333254-8.0959998-7.18133315-64.28666505 2.58399993-10.79733307-6.2506665-20.15333283 35.15333245-28.95866594zM351.94865787 102.78974076l-4.50266656 3.46266658-9.25599976 28.54133262 20.61999948-17.92799955 8.02666647-6.80533316zM338.01159155 103.13574075l-6.83599983-7.61733314-22.11733278-.58266665 13.461333 25.1653327 1.72933329 21.11866614z" fill="#f5cab3" fill-rule="evenodd"/><path d="M261.58359346 147.10573966l-21.79199945 11.43866638-3.66666658-30.95199923 20.62533282-21.00666614 19.09999952 16.85066624z" fill="#c4937d" fill-rule="evenodd"/><path d="M338.01159155 103.13574075l9.43466643 3.11733326-12.46266635 38.42933237-10.7346664-3.46266658z" fill="#fff1e8" fill-rule="evenodd"/><path d="M324.2495919 141.2201398l3.4639999 8.30933313 7.26933316-4.84666655zM384.54665705 79.26387469l-103.22799742 52.95466534-18.39999954-1.15199997 6.8266665-16.4439996 61.4293318-19.10399951 56.28533192-25.2013327z" fill="#c4937d" fill-rule="evenodd"/><path d="M216.83346125 73.12720817l-5.94399986-14.25199964-56.63466525-14.25066631 43.97066557 99.43733085 28.44133262-25.27066604 3.69066658-20.44133282z" fill="#5c5c5c" fill-rule="evenodd"/><path d="M198.22519504 80.63094132l-43.96933223-36.00666577 81.86799795-8.36799979-9.90933308 28.75599928z" fill="#7a7a7a" fill-rule="evenodd"/><path d="M267.08972666.00054333l-68.86399828 80.63066465 83.77466457-23.5199994 53.90133199-32.0039992L267.23239332.00054332z" fill="#5c5c5c"/><path d="M356.79439108 92.74894101l10.04133308 17.31199957-14.8866663-7.27066648z" fill="#2b2b2b" fill-rule="evenodd"/><path d="M288.74372611 146.22867301l37.99866572 5.99866652 21.31866614 15.29466628-34.38799915 22.67599944z" fill="#856400" fill-rule="evenodd"/><path d="M305.18839237 163.88613924l13.52666633-4.4559999 11.79333304 13.549333-8.96666645 6.05866652-9.60133309-3.38133325z" fill="#5e4700" fill-rule="evenodd"/><path d="M305.18839237 163.88613924l25.31999937 9.0933331 8.9653331-6.05866651-41.03599897-14.8066663z" fill="#fff" fill-rule="evenodd"/><path d="M270.62692657 120.55707365l-9.04399978 26.54933267-36.58266575-11.58266637 2.05599995-6.17866652 9.06799977-1.75199995 18.88133286 5.66399986 3.35866659-10.19999975z" fill="#856400" fill-rule="evenodd"/><path d="M297.93852588 195.23093845l-39.47066568-12.81066634 20.31866616 48.50666545z" fill="#c4937d" fill-rule="evenodd"/><path d="M230.35719424 98.3502742l-32.1319992 45.71199887 72.40133153-23.50533275z" fill="#2b2b2b" fill-rule="evenodd"/><g clip-path="url(#c)" transform="matrix(1.33333 0 0 -1.33333 0 533.33333)"><path d="M270.5976 307.9104c0-2.44-1.978-4.417-4.417-4.417-2.44 0-4.418 1.977-4.418 4.417 0 2.44 1.978 4.418 4.418 4.418 2.439 0 4.417-1.978 4.417-4.418M244.3663 316.6759c0-2.44-1.978-4.418-4.417-4.418-2.44 0-4.418 1.978-4.418 4.418 0 2.44 1.978 4.417 4.418 4.417 2.439 0 4.417-1.977 4.417-4.417" fill="#2b2b2b"/><path d="M303.6898 354.3275l-91.921-49.597-63.1 34.796 73.347 9.79z" fill="#484748" fill-rule="evenodd"/><path d="M303.6898 354.3275l-28.823 36.093-126.198-50.894z" fill="#949494" fill-rule="evenodd"/><path d="M111.6394 304.8553l68.204-23.763-33.592-22.538z" fill="#383838" fill-rule="evenodd"/><path d="M156.7214 29.2538l10.014-14.803 30.061-2.18-5.847-5.265-35.715 10.945z" fill="#f5cab3" fill-rule="evenodd"/><path d="M181.6159 20.9441l-5.6-9.362 4.597-1.409 4.668 7.444z" fill="#9e7700" fill-rule="evenodd"/><path d="M220.5049 66.2673l-.905-14.42 26.934-17.468-7.448-2.539-26.216 26.917z" fill="#f5cab3" fill-rule="evenodd"/><path d="M237.6176 50.1178l-9.837-6.669 2.961-3.041 8.287 4.891z" fill="#9e7700" fill-rule="evenodd"/><path d="M239.1582 117.1817l-92.496 18.495 23.776 28.49z" fill="#f4d75c" fill-rule="evenodd"/></g></svg>