<svg xmlns="http://www.w3.org/2000/svg" viewBox="0 0 533.33331 533.33331" height="533.33331" width="533.33331"><defs><clipPath id="a"><path d="M0 400h400V0H0z"/></clipPath><clipPath id="b"><path d="M90.0292 23.7986H335.78V-.0252991H90.0292z"/></clipPath></defs><g clip-path="url(#a)" transform="matrix(1.33333 0 0 -1.33333 0 533.33333)"><g clip-path="url(#b)" opacity=".10000598"><path d="M335.78 12.9422l-124.104 10.856L90.029 8.7212l121.009-8.746z" fill-rule="evenodd"/></g></g><path d="M115.71093044 359.06893436l12.93466634-24.94266605 15.87333294 3.63599991-16.05466626 28.23733263z" fill="#4f5253" fill-rule="evenodd"/><path d="M172.28106236 251.38893705l43.34133225 74.59199813-33.39999917 11.35066639-32.39733252-42.05199895zM331.48825838 216.1292046l39.19599902 58.6346652-5.77199986 28.03733263-16.08266626 16.89599958-20.46533282-17.4733329-4.88799988-49.5573321z" fill="#856400" fill-rule="evenodd"/><path d="M370.68372407 274.7634698l34.48399913-2.99199993 5.33866654 17.57999956-4.98133321 21.09866614-56.69599858 9.24666644z" fill="#bf8f00" fill-rule="evenodd"/><path d="M326.76839183 378.9466672l7.0546665 54.7066653-17.5213329 28.32533262-31.76133254-5.3013332-30.9706659-50.7746654z" fill="#846528" fill-rule="evenodd"/><path d="M284.54065955 456.67733192l49.2813321-23.02399943 5.3093332 41.17199897-16.25199959 15.47733295-19.01199952-1.94266662z" fill="#755924" fill-rule="evenodd"/><path d="M340.0619915 478.82893136l12.77066635 7.92533314 21.85199945 19.02533286-39.75866567 2.95333326-29.54799926-2.95333326-1.51066663-17.41866624 27.62133264-16.22933292z" fill="#b58b00" fill-rule="evenodd"/><path d="M330.15385841 478.27133138l13.36666634 12.0319997 9.31199976-3.54933325-13.70133299-11.9279997-5.3093332-2.6946666z" fill="#e5c82e" fill-rule="evenodd"/><path d="M280.30772633 416.69026625l-8.87066645 30.74533256-27.90666597 14.5426663-27.9079993-7.50266647-15.9319996-73.3933315 58.8586652 17.25066624z" fill="#bf8f00" fill-rule="evenodd"/><path d="M215.6227946 454.47559864l55.81466528-7.03999983-11.55466638 40.04933234-18.53199953 9.3413331-17.82666622-2.6266666z" fill="#846528" fill-rule="evenodd"/><path d="M259.88332684 487.48533115l11.55466637 26.97866599-28.37733262 3.98533323-22.9906661-3.98533323 3.45466659-20.2639995 12.24533303-7.86666646 6.07466651-1.57866663h5.95599985z" fill="#b58b00" fill-rule="evenodd"/><path d="M271.43732655 522.4346636h-51.36799872v-7.96933313h51.36799872zM235.77066077 491.7807977l1.80266662 12.80399969h14.7666663l-4.85999988-14.88933297-5.63466652-1.33466663zM374.74532396 513.61466383H305.3773257v-7.96933314h69.36799826z" fill="#e5c82e" fill-rule="evenodd"/><path d="M326.76839183 378.9466672L280.308393 416.69066624l-80.61866465-35.60933244 55.90666527-7.74799981 26.638666-16.45333292 16.33866626 12.27866636z" fill="#9d782c" fill-rule="evenodd"/><path d="M318.3930587 224.57987105l-19.8199995-8.80799978-13.61066632 18.66533287-10.9306664 26.17066601-36.08533243-12.27866636-35.71466577-7.84666647-16.68266625 18.5146662 11.06266639 66.97999833 5.61999986 17.2293329-2.54133327 37.87466572 67.70266497 11.56533305 14.84133296-33.85733249 18.17066622 30.00799925 26.362666-9.85066642 1.59599996-76.72266475z" fill="#e5c82e" fill-rule="evenodd"/><path d="M191.48732855 210.7566714l13.481333-14.08533298 2.0626666 12.88799967 8.15333314 13.629333zM284.24372623 180.9541388l26.71733266 14.045333-12.38799969 20.77199947-24.54133272 44.83599888 1.32266664-45.5973322z" fill="#755800" fill-rule="evenodd"/><path d="M196.61346175 325.98146852l5.61866653-85.49866453-29.95066592 10.9066664zM331.48825838 216.1292046l-3.12399992 86.09466451-29.79066592-86.45199784zM262.6530601 287.6604028l-51.28533205 8.16266647 1.1253333 7.0746665 51.28533206-8.1639998z" fill="#bf8f00" fill-rule="evenodd"/><path d="M192.59732852 69.53467493l77.52266473-8.1599998 23.85333273-11.61333304 26.05066602 120.207997-35.7799991 10.98533305-4.89333322 15.52666628-5.01066654 10.18533308-32.78133251 17.91333289-26.99199933-17.03199958-40.99466564-46.78533216-16.44133292-25.63199936-4.60133322-26.31866601z" fill="#ffe6d6" fill-rule="evenodd"/><path d="M201.4641283 68.60160828l36.69199908 125.79466353 46.08799885-13.44266633-4.23333323 16.11733293.38799999 15.8959996-6.3666665 47.6399988-41.35466564-23.82533273-25.01599937-22.87199943-23.79066608-37.09066574-.84666664-10.52133307-9.45066643-5.53199986 20.28266616-15.22133295-17.26666624-24.53733272-19.45866618 14.12399965-12.2399997-18.83199953 37.25066574-36.51466576 10.45599974-10.24933308zM275.28319312 129.6233401l-22.46933277-32.01466587-28.51733262-9.24266644 32.64133251-10.04399975 8.38133313 10.15866641 11.88266637 21.4053328zM277.52865973 85.55867453l1.3133333-10.37466641 19.34933285-5.95599985-15.17333296 47.6999988z" fill="#f5cab3" fill-rule="evenodd"/><path d="M193.85666182 145.54360636l-20.28266616 15.22266629 10.29333308 16.04666626zM269.5873266 106.10507401l-37.12933241 31.06533256-15.29199962-14.73733296-6.53599984-.236-2.99466659-4.45733322 16.66133292-7.9719998zM281.93985962 103.7732074l25.5413327 8.3199998-1.08666665-5.01066654-4.97866654-8.93733311z" fill="#c4937d" fill-rule="evenodd"/><path d="M184.33212873 83.04574126l37.72799905 56.16933193-19.69333284 18.42133287-25.77733269-36.62933242-19.45866618 14.12399965-12.2399997-18.83199953 19.65599952-23.8199994z" fill="#856400" fill-rule="evenodd"/><path d="M277.52865973 85.55867453l-12.21066636 2.92133326 9.96533308 41.14266564 12.20133303-2.9546666z" fill="#fff1e8" fill-rule="evenodd"/><path d="M183.35319542 143.56160641l-7.91333314-13.67733299-11.69066637 8.07866646z" fill="#c4937d" fill-rule="evenodd"/><path d="M224.2967944 88.36614112l22.59733276-15.37999961 10.04399975 5.33599987zM278.84239303 75.18427479l9.67466642-10.11866642 9.67466643 4.16266657z" fill="#856400" fill-rule="evenodd"/><path d="M306.84092566 133.24720667l-68.73466495 16.63466625 26.05066602 13.18266634 29.81599925-6.90533316z" fill="#c4937d" fill-rule="evenodd"/><path d="M298.93452586 139.63387318l-48.2839988 11.6319997 14.44133298 8.0439998 25.81733269-6.04533318z" fill="#fff" fill-rule="evenodd"/><path d="M287.48519281 126.66814017l-5.24799987 8.69333311-6.95466649-5.73866652z" fill="#c4937d" fill-rule="evenodd"/><path d="M210.63012807 122.19734028l-31.87733254 1.88133328-2.16266661-3.07199992 17.01999957-4.70666655 14.09866632 1.55066663z" fill="#755800" fill-rule="evenodd"/><path d="M284.24372623 180.9541388l-60.26133183 17.57599957 56.41599859 14.43733297z" fill="#c4937d" fill-rule="evenodd"/><path d="M270.11959325 13.66747632L157.13159607 41.9141423 136.5115966 76.43947476l71.15066489-26.678666z" fill="#bf8f00" fill-rule="evenodd"/><path d="M201.4641283 68.60160828l-56.57333192 47.69733215-8.37866646-39.859999 50.63999873-24.79466605z" fill="#9e7700" fill-rule="evenodd"/><path d="M201.4641283 68.60160828l-14.31199965-5.5013332v-11.4559997l82.96799793-37.97733239 2.6386666 24.39466606-2.6386666 23.31199942z" fill="#856400" fill-rule="evenodd"/><path d="M270.11999325 13.667343v47.70666547l23.85333273-11.61333305L324.41732522.58601z" fill="#bf8f00"/><path d="M219.90266117 99.35067418l-61.2013318 14.7506663-1.57066663 21.0293328 19.45866618-14.12399964 47.7079988-5.0213332-.55599998-9.2693331zM277.52865973 85.55867453l-12.21066636 2.92133326-.63866665 5.19999987 3.22266658 5.46666653 12.1759997-3.0626666 1.31999997-4.44933321z" fill="#484748" fill-rule="evenodd"/><path d="M269.5873266 106.10507401l-40.89733232 26.514666-8.78799978-33.2693325 45.41599887-10.86933306zm46.04133218-29.66533259l7.84666647 32.95466585-41.53599897-5.6213332-4.41066655-18.2146662z" fill="#4f5253" fill-rule="evenodd"/><path d="M243.06026059 225.50107103l-51.57333204-14.74399963 10.74533306 29.72666592 71.7999982 20.1239995z" fill="#bf8f00" fill-rule="evenodd"/><path d="M202.23226161 343.20626809l72.10666486-31.8239992h7.8959998l45.4533322 23.3559994-45.4533322 22.14266612z" fill="#ccad14" fill-rule="evenodd"/><path d="M274.03225982 260.60733682l.30666665 50.7746654 7.8959998 47.40666548v-47.40666548zM149.82519625 295.27906928l64.74133172 42.4826656-3.19866659 19.1186662-10.87999973 12.30933302-71.84133153-35.06399912z" fill="#bf8f00" fill-rule="evenodd"/><path d="M214.5670613 337.76240156l16.0799996 10.29999974-30.15866591 21.12666614z" fill="#ffe6d6" fill-rule="evenodd"/><path d="M218.7302612 470.09853158l46.22933218-.20933333-5.07599988 17.59599956-36.35999909 6.7146665z" fill="#9d782c" fill-rule="evenodd"/><path d="M235.79892744 491.9331977v-13.10399967l12.44133302-1.25466664-.74533331 12.19866637z" fill="#ccae2d" fill-rule="evenodd"/><path d="M294.6962593 473.32639817l41.70533229-19.66666618 2.72933327 21.1653328-35.26399912 13.53599967z" fill="#9d782c" fill-rule="evenodd"/><path d="M330.15425841 478.27119804l-2.4666666-13.31599966 9.78666642-2.97733326 1.6573333 12.84799968z" fill="#ccae2d" fill-rule="evenodd"/><path d="M405.16718987 271.7716032l20.32666616-1.49199996 7.44399981 17.3813329-4.2159999 22.84799943-23.19733274-.05866666z" fill="#f5cab3" fill-rule="evenodd"/><path d="M405.16718987 271.7716032l15.79333294-26.43599933 8.79199978 2.66799993-6.7346665 35.22799912-17.68399956 6.49733317z" fill="#ffe6d6" fill-rule="evenodd"/><path d="M425.49425603 270.27933658l41.2453323-2.36666661v8.38533312l-35.13599912 8.2799998z" fill="#f5cab3" fill-rule="evenodd"/><path d="M446.45492217 281.0785363l1.25199997 23.27199942-18.98533286 6.15866652-5.70399986-27.27733265z" fill="#ffe6d6" fill-rule="evenodd"/><path d="M109.29399727 369.1585341l95.08799762 36.94666575 17.67866623 15.42533295-6.43733318 32.9453325-114.27199714-23.35333274-15.9999996-44.33733223z" fill="#858686" fill-rule="evenodd"/><path d="M204.38159489 406.10506651L85.3509312 386.785067l30.35999924-27.71599931 123.94933024 15.35999962-9.7053331 22.22133277z" fill="#a3a2a2" fill-rule="evenodd"/><path d="M236.60146075 379.16666719l-9.55466643 6.58799983-22.66533276 20.35066616 11.24133305 48.37066546 36.97866574-32.94666584-9.05599977-32.95999918z" fill="#6f7173" fill-rule="evenodd"/><path d="M202.23239494 240.48320399l41.2973323 148.0879963-16.48266625-2.81599993-36.33333242-141.07732981z" fill="#4f5253" fill-rule="evenodd"/><path d="M131.9695967 406.22759984l-10.88399973.74133332-.74133331 5.4413332 5.68799986 3.95733323-6.67733317 2.47199994.24666666 3.71066657 9.15066644-1.2373333 2.4746666-6.18133318-7.17333315-4.45199989 8.65866645-.74266665zM140.37572982 416.11973293l-2.96799992-1.23599997.49466665-3.21599992 2.96799993 1.73199996zm4.94666655-5.68799986l-9.15066644-1.73066662-3.21466659 14.83733296 4.94533321 1.48399996-.49466665-6.92399982 7.17333315.9893333zM153.97732948 423.0442661l-3.70933324-.98933332.74133332-5.4413332 4.45333322 1.2373333zm4.45333323-9.6453331l-9.89333309-1.23599997-1.2373333 13.84933299 10.3866664.74133331zM165.6009292 416.61426625l2.96799992 1.73066662-.49466666 2.72133327-2.96799992-1.2373333zm7.7279998 13.47866633l-2.5346666-6.05999985 2.22533327-8.65466645-9.1493331-1.73199995-3.21466659 14.8386663 4.94533321 1.48399995-.49466665-6.92399982 4.88399988 7.41866648zM176.11132893 416.73799958l13.35466633.74266665-.55599998 3.52266658-5.93599985-.37066666-.92666665 10.94399973-4.82266654-.92799998 2.78133326-9.83066642-4.82266655-.74133332z" fill="#dddddc" fill-rule="evenodd"/></svg>