<svg xmlns="http://www.w3.org/2000/svg" viewBox="0 0 533.33331 533.33331" height="533.33331" width="533.33331"><defs><clipPath id="a"><path d="M0 400h400V0H0z"/></clipPath><clipPath id="b"><path d="M40.4406 40.2089H366.496V0H40.4406z"/></clipPath><clipPath id="c"><path d="M0 400h400V0H0z"/></clipPath><clipPath id="d"><path d="M159.377 67.8898h91.985V39.8992h-91.985z"/></clipPath><clipPath id="e"><path d="M251.362 75.8573h74.995V47.1758h-74.995z"/></clipPath><clipPath id="f"><path d="M0 400h400V0H0z"/></clipPath><clipPath id="g"><path d="M286.496 89.6865h32.614v-9.7406h-32.614z"/></clipPath><clipPath id="h"><path d="M0 400h400V0H0z"/></clipPath><clipPath id="i"><path d="M249.974 80.5883h27.292V73.002h-27.292z"/></clipPath><clipPath id="j"><path d="M0 400h400V0H0z"/></clipPath><clipPath id="k"><path d="M207.052 97.9811h31.98V84.9982h-31.98z"/></clipPath><clipPath id="l"><path d="M0 400h400V0H0z"/></clipPath><clipPath id="m"><path d="M147.62 227.793h43.057v-24.067H147.62z"/></clipPath><clipPath id="n"><path d="M0 400h400V0H0z"/></clipPath></defs><g clip-path="url(#a)" transform="matrix(1.33333 0 0 -1.33333 0 533.33333)"><g clip-path="url(#b)" opacity=".10000598"><path d="M366.4961 19.6623l-40.423 16.323-174.407 4.224-111.225-24.192 99.588-16.017z" fill-rule="evenodd"/></g></g><path d="M379.70385717 465.23866504l2.90399993 29.88666592 20.50933282-.084.81866665-27.45333265zM239.11906069 465.23866504l2.90399993 29.88666592 20.50933282-.084 5.3533332-27.45333265z" fill="#5e5e5e" fill-rule="evenodd"/><path d="M244.32386056 504.44813072l3.91333323-41.90666562-39.11733235 4.53466656 2.3306666 39.37199901z" fill="#858686" fill-rule="evenodd"/><path d="M118.33213038 344.99480138l13.72133299-94.9146643-30.58799924-17.82533289-25.4813327 68.4279983z" fill="#734c5f" fill-rule="evenodd"/><path d="M75.98453143 300.68280248l46.24533218-1.40666663 4.58799989 27.52133265-8.97599978 29.31199926z" fill="#543042" fill-rule="evenodd"/><path d="M272.19225986 248.14573713l18.53599954 60.38266516-3.77333324 23.7439994-26.29733268 22.93999943-20.65866615-66.58799834 6.28133318-58.4946652z" fill="#734c5f" fill-rule="evenodd"/><path d="M272.95759318 279.708403l-12.2999997 75.50399812 51.24399872-20.3879995-15.23066628-52.69066534-9.93999975-6.95999983z" fill="#96637c" fill-rule="evenodd"/><path d="M196.82599508 261.69907012l25.84399935-37.2853324 30.00666592 9.57066643 7.98133313 121.22799697-73.96933148 8.42533312-68.84666495-7.52933314 8.4159998-104.06933073 15.8559996-12.57199969 7.6559998-21.21199947z" fill="#96637c" fill-rule="evenodd"/><path d="M225.53106103 248.07853713l47.42666548 2.50799994-4.49599989-15.23999962-43.42266558-5.73733319z" fill="#594265" fill-rule="evenodd"/><path d="M433.63065583 506.448264l1.1333333-38.60399903-36.22266576-5.30266653.70133332 43.90666557z" fill="#858686" fill-rule="evenodd"/><path d="M434.76398913 472.3787982l.37866666-19.2906662-104.98533071-43.00533225-119.77466367 34.22933248.91866664 28.06666596z" fill="#858686" fill-rule="evenodd"/><path d="M424.56065605 453.08786534l-206.3706615-6.43199984 114.4626638-25.5213327z" fill="#c4c4c3" fill-rule="evenodd"/><g clip-path="url(#c)" transform="matrix(1.33333 0 0 -1.33333 0 533.33333)"><g clip-path="url(#d)" opacity=".10000598"><path d="M251.3623 67.8898l-91.985-27.991 5.49 10.724 43.679 15.427z" fill-rule="evenodd"/></g><g><g clip-path="url(#e)" opacity=".10000598"><path d="M251.3623 75.8573v-7.967l74.654-20.715.341 13.009z" fill="#2b2a29" fill-rule="evenodd"/></g></g></g><path d="M219.8227945 465.83599835l115.32666379-23.02266609 5.80666652-13.47599966-7.65733314-13.87066632L223.4707944 427.8319993z" fill="#d6d6d6" fill-rule="evenodd"/><path d="M332.65265835 421.1349328l-109.1813306 6.69733317 6.7986665-52.65333202 31.8759992 7.98933314 65.77333169 16.57066625 5.37866653 11.63066638z" fill="#a3a3a3" fill-rule="evenodd"/><path d="M327.9195918 399.73946667l4.73333322 21.39599947 43.12799892 4.74666655 49.69866542-12.13066637 14.73333297-38.57333237z" fill="#bfbfbf" fill-rule="evenodd"/><path d="M332.65265835 421.1349328l2.49733327 21.67866613 129.69599676 14.15466631L425.4793227 413.750933z" fill="#ededed" fill-rule="evenodd"/><g clip-path="url(#f)" transform="matrix(1.33333 0 0 -1.33333 0 533.33333)"><g clip-path="url(#g)" opacity=".10000598"><path d="M319.1098 89.6865l-13.123-9.741-19.491 7.147z" fill-rule="evenodd"/></g></g><path d="M402.27718994 374.90893396l-26.49599933 14.3626663 28.7773326 14.36133298z" fill="#9075a0" fill-rule="evenodd"/><path d="M407.98265647 421.2613328h-5.7053332v-46.35199884h5.7053332z" fill="#795d88" fill-rule="evenodd"/><g clip-path="url(#h)" transform="matrix(1.33333 0 0 -1.33333 0 533.33333)"><g clip-path="url(#i)" opacity=".10000598"><path d="M277.2657 80.5883l-14.925-7.586-12.367 6.944z" fill-rule="evenodd"/></g></g><path d="M349.78759126 384.16746706l-21.86799946 15.57199961 24.14933273 13.15199967z" fill="#9075a0" fill-rule="evenodd"/><path d="M355.49332445 430.51999924h-5.7053332V384.1680004h5.7053332z" fill="#795d88" fill-rule="evenodd"/><g clip-path="url(#j)" transform="matrix(1.33333 0 0 -1.33333 0 533.33333)"><g clip-path="url(#k)" opacity=".10000598"><path d="M239.0322 90.153l-15.02-5.155-16.96 12.983z" fill-rule="evenodd"/></g></g><path d="M299.02479252 368.1724008l-24.40399939 18.16133287 26.68533267 10.5626664z" fill="#9075a0" fill-rule="evenodd"/><path d="M304.73065905 414.52533297h-5.7053332v-46.35199884h5.7053332z" fill="#795d88" fill-rule="evenodd"/><path d="M262.14546011 383.16813375L186.705462 412.83879968v42.8346656l18.62533287 9.1653331 26.278666-22.02533278z" fill="#734c5f" fill-rule="evenodd"/><path d="M231.60932754 442.81359893l-44.90399887 12.85999968-22.03866612 14.99333296 16.69466625 16.19733293h16.56133292l14.57999963-6.72933317z" fill="#5e3a4c" fill-rule="evenodd"/><path d="M186.70492867 455.67293194l6.08533318-35.52399911-25.12666604-22.50533277-50.66133207-22.46533277 14.49599964 73.39466483 28.99066594 18.50399954z" fill="#96637c" fill-rule="evenodd"/><path d="M262.14546011 383.16813375l-69.35466493 36.97999908-75.7879981-44.9693322 80.91999797-.04133334z" fill="#5e3a4c" fill-rule="evenodd"/><path d="M131.49879671 448.57346545l55.20666529 7.09999982-5.34399987 31.1906659-20.87199948 5.42666652-20.67199948-1.59866662z" fill="#734d61" fill-rule="evenodd"/><path d="M180.13772883 504.44813072l26.34799934 2.36933328 37.83866572-2.36933328-31.82133254-24.31333272-31.14133255 6.72933316z" fill="#795d88" fill-rule="evenodd"/><path d="M244.3239939 513.4933305h-64.18666507v-9.04533311h64.18666506z" fill="#594265" fill-rule="evenodd"/><path d="M181.36146213 486.86399783l12.21466636 26.62933267-28.85999927 2.76399993-28.86133262-2.76399993 3.96266657-22.80133277z" fill="#9075a0" fill-rule="evenodd"/><path d="M193.57599516 522.5386636h-57.72133189v-9.0453331h57.7213319z" fill="#594265" fill-rule="evenodd"/><path d="M226.63612767 316.1448021l8.13333313 39.23066568-82.38666461.51733332 7.23066649-29.09466594 16.2319996-45.59599886 20.97999947-19.50266618 18.1826662 19.50266618z" fill="#734c5f" fill-rule="evenodd"/><path d="M170.24479574 237.1593374l-56.35066525 19.06399953-12.42933303-23.9679994 52.83999868-15.51199962z" fill="#594265" fill-rule="evenodd"/><path d="M154.30492948 216.74400458l5.30799986 110.05333058 37.2133324-65.09866504z" fill="#b3889d" fill-rule="evenodd"/><path d="M196.82599508 261.69907012L226.636661 316.1444021l-1.5973333-86.5346645zM200.00426167 293.93920265l5.32666653 9.76666642-9.76666642 6.65733317-7.10133316-10.20933308zM199.56079501 324.1232019l-9.76533309 6.2146665 7.54533315 9.7653331 8.43333312-6.21466651z" fill="#b3889d" fill-rule="evenodd"/><path d="M117.84199705 356.1088011l59.8119985-.37466666 20.13066617 5.0413332 20.4039995-5.29599986 42.46933226-.26666666 1.48799997 27.95466597-45.34266554-2.49599994-15.15466628-2.9986666-23.85066607.85199999-60.79599849-3.34666659z" fill="#594265" fill-rule="evenodd"/><path d="M207.99212813 372.51480069h-21.74799945l.44399999-8.87733311 21.74799945-.88666665zm10.19733308-17.03466624l-40.53466565.25333332.14266666 22.79199943 39.00533236 2.14533328z" fill="#b3889d" fill-rule="evenodd"/><g clip-path="url(#l)" transform="matrix(1.33333 0 0 -1.33333 0 533.33333)"><g clip-path="url(#m)" opacity=".10000598"><path d="M147.6195 203.7257l43.058 20.431-21.898 3.636z" fill-rule="evenodd"/></g></g><path d="M135.0238633 152.32147286l14.6146663-3.9319999 23.6599994 17.94533288-15.02933296 14.14933298-38.55999903 3.79733324z" fill="#594165" fill-rule="evenodd"/><path d="M318.70012537 97.98840755l-7.29866649 34.74133247-33.16266584 106.34533067-53.19999867-9.4653331-28.21333262 32.08933253-32.38266586-53.11466533 14.00533298-57.59199856 9.4013331-3.9519999 5.4013332-27.25199932-1.97999995-41.03466565 46.05999885-23.29066608 43.59733224 25.21866604 9.07999977-23.50799942z" fill="#ffe6d6" fill-rule="evenodd"/><path d="M192.93492851 79.41987468l26.546666 50.6266654-6.16266651 101.77599746-16.49333292 29.87599925-42.52133227-44.95466554 3.9639999-36.2599991 3.54266658-7.79333313-.03466667-7.79466648-15.25866628-2.04666661.22933332-35.7319991 23.11599943-.09466667 8.58533312 20.62933282 7.39866648.71999998 6.06533318-28.24933263z" fill="#f5cab3" fill-rule="evenodd"/><path d="M297.33305923 144.06427307l-77.85199805-14.01733299 20.51733282 21.37199947 10.68533307 35.90533243z" fill="#f5cab3" fill-rule="evenodd"/><path d="M215.0074613 203.93387157l38.20533237 12.82266634 27.39066598-2.93066659-25.71199936-13.41199966z" fill="#c4937d" fill-rule="evenodd"/><path d="M215.0074613 203.93387157l35.67733243-16.60933292 15.81333294 2.99199993 14.10533298 23.50933274z" fill="#785d88" fill-rule="evenodd"/><path d="M262.14546011 137.72840656l-11.46133304 49.59599876 15.81466627 2.99199992 8.12133313-50.34133207z" fill="#fff1e8" fill-rule="evenodd"/><path d="M219.48146118 130.04640675l77.85199805 14.01733298 2.4746666-10.07599975-75.12666478-9.07066644z" fill="#785d88" fill-rule="evenodd"/><path d="M266.51199334 190.24027191l-9.37199977 4.77733321-6.45599984-7.69333314z" fill="#594165" fill-rule="evenodd"/><path d="M153.00146284 134.67560663l11.65333304.33333333 2.84133327 23.02533276zM225.03906104 229.6093376l-37.4653324-6.70799984 9.25199977 38.79733236zM161.77599596 164.89653921l10.05066641 1.43866663-13.557333 14.14933298z" fill="#c4937d" fill-rule="evenodd"/><path d="M316.03292543 97.6557409l9.1173331-14.82133297 19.2866662-12.74666635-33.03466585 62.64133177z" fill="#9782a3" fill-rule="evenodd"/><path d="M192.93492851 79.41987468l-26.95199933-15.81333294-43.9439989-13.49599966 8.2599998 65.02399837 37.44266573 5.42799987 30.8426659-.43999999z" fill="#9075a0" fill-rule="evenodd"/><path d="M316.03292543 97.6557409l-25.87066602-31.81066588L274.6542598 51.2570754l-15.87066627-23.99866607 85.6533312 42.82933226zM192.93492851 79.41987468l47.06399882-16.9533329-27.09466599-22.9826661-35.30399911-13.75999966-55.56133195 24.38666606z" fill="#785d88" fill-rule="evenodd"/><path d="M258.7830602 27.25880932L207.26839482 1.50280996 177.60039556 25.7241427l62.3986651 36.74266575 44.2639989 25.55199936 5.89866652-22.17333278z" fill="#9075a0" fill-rule="evenodd"/><path d="M198.58479504 120.12227366l-68.28533163-4.98799987 4.72399988 37.18666574 11.49466638 10.52799973 1.73999996-34.21999914 21.60399946 1.4173333 5.56266652 22.94399942 13.09199968-1.94933328z" fill="#785d88" fill-rule="evenodd"/><g clip-path="url(#n)" transform="matrix(1.33333 0 0 -1.33333 0 533.33333)"><path d="M217.0001 279.1139c0-2.526-2.048-4.574-4.574-4.574-2.527 0-4.575 2.048-4.575 4.574s2.048 4.574 4.575 4.574c2.526 0 4.574-2.048 4.574-4.574M184.756 285.3024c0-2.526-2.048-4.574-4.574-4.574-2.527 0-4.575 2.048-4.575 4.574s2.048 4.574 4.575 4.574c2.526 0 4.574-2.048 4.574-4.574" fill="#2b2b2b" fill-rule="evenodd"/><path d="M197.8889 197.7422l6.829-7.523 6.535-.879 6.793 21.526-20.045-3.033z" fill="#c4937d" fill-rule="evenodd"/><path d="M234.6022 212.368l-12.099-23.968-17.785 1.819 13.328 20.647 4.457 4.893z" fill="#f5cab3" fill-rule="evenodd"/><path d="M195.4935 223.0395l16.336 7.755 22.773-18.427-16.556-1.501-13.902 3.024z" fill="#fff1e8" fill-rule="evenodd"/><path d="M218.0461 210.8661l-13.328-7.374-14.441 9.331 5.216 10.216z" fill="#ffe6d6" fill-rule="evenodd"/></g></svg>