<svg xmlns="http://www.w3.org/2000/svg" viewBox="0 0 533.33331 533.33331" height="533.33331" width="533.33331"><defs><clipPath id="a"><path d="M0 400h400V0H0z"/></clipPath><clipPath id="b"><path d="M103.172 22.9448h174.641V0H103.172z"/></clipPath><clipPath id="c"><path d="M0 400h400V0H0z"/></clipPath><clipPath id="d"><path d="M145.941 159.408h68.136v-21.377h-68.136z"/></clipPath><clipPath id="e"><path d="M0 400h400V0H0z"/></clipPath></defs><g clip-path="url(#a)" transform="matrix(1.33333 0 0 -1.33333 0 533.33333)"><g clip-path="url(#b)" opacity=".10000598"><path d="M103.1721 7.6719l95.092 15.273 79.549-14.327-73.172-8.618z" fill-rule="evenodd"/></g></g><path d="M264.3027934 454.99319863l20.33466615 33.53199916 11.13199972 2.15599994 5.1813332-4.9053332-2.51199993-27.20133266zM244.38759389 453.020132l-3.50933325 37.68266573-14.08799964 4.64666655-3.1386666-6.33733317-12.62666634-39.41999902z" fill="#f5cab3" fill-rule="evenodd"/><path d="M300.95079248 485.77613119l15.41599961 14.21866631-14.81999963 16.46933292-18.04799955-2.50133327 1.13866664-25.4373327zM240.87879398 490.70319773l10.5386664 27.91733264-18.54799954 2.77999993-18.3706662-2.77999993 9.15199977-29.60799926z" fill="#29788b" fill-rule="evenodd"/><path d="M298.43879254 458.57399854l-27.55599931 7.26933315-6.57999984-10.8506664 17.06799958-1.62266662zM211.02532806 449.5921321l32.46133252 13.11066633.90133331-9.68266642-15.9639996-3.42799992z" fill="#c4937d" fill-rule="evenodd"/><path d="M201.1041283 231.8728042l-40.44266565 85.7813312 33.78266582-18.96533287 22.22266611-10.89599972zM272.53385985 220.90360448l13.65599966 6.13466651 45.66799886 67.41066498-33.41866583-15.81466627-25.90533269-16.61199958z" fill="#4fa8a9" fill-rule="evenodd"/><path d="M272.53385985 220.90360448l-15.29466628 39.05066569-21.50666613 9.19999977 21.97199945-16.49599959-28.61199928-34.97333246-27.9879993 14.18799965 9.49466643 53.02399867-12.05466637 36.08933243-17.0453329 36.91599908h42.85866559l48.1759988-8.61066645 12.90266634-17.59866623 13.00266634-53.05866534z" fill="#73cacb" fill-rule="evenodd"/><path d="M210.59959474 284.89693621l-12.05466637 36.08933243 41.42399896-.19733333 45.08666554 7.23333316 12.4439997-36.4999991.93999997-12.88799967zM272.53385985 349.2913346l-24.94666604 45.01866554-41.80933229 39.26533235-24.27866606-75.67333144z" fill="#359395" fill-rule="evenodd"/><path d="M272.53385985 349.2913346l10.75999973 18.06399955 11.78666638 57.16666524v28.84799928l-84.05466457-3.77733324-5.24799987-16.01733294z" fill="#4fa8a9" fill-rule="evenodd"/><path d="M211.02532806 449.5921321l84.0559979-25.07066605 3.35733325 34.05199915z" fill="#359395" fill-rule="evenodd"/><g clip-path="url(#c)" transform="matrix(1.33333 0 0 -1.33333 0 533.33333)"><g clip-path="url(#d)" opacity=".19999701"><path d="M145.9405 152.8317l2.968 6.428 40.173.149 24.996-8.178-9.677-13.199z" fill="#2b2b2b" fill-rule="evenodd"/></g></g><path d="M272.53385985 349.2913346l22.5466661 75.23066479-9.64399975-92.82933102z" fill="#359395" fill-rule="evenodd"/><path d="M210.59959474 284.89693621l39.11733235 24.51333272 2.39199994 7.55333315-2.39199994 8.52266645-89.05599777-7.8319998z" fill="#ffe6d6" fill-rule="evenodd"/><path d="M295.9923926 317.65466873l-10.55599974 14.03866631-35.7199991-6.20666651 29.13466594-11.52399971z" fill="#c4937d" fill-rule="evenodd"/><path d="M272.53385985 220.90360448l-48.1759988-1.1413333v55.71733193l32.88133252-15.52533294 36.43866575 8.0679998z" fill="#fff" fill-rule="evenodd"/><path d="M322.07612528 77.66760806l29.41999927 18.76399953-23.1586661 31.36133255-6.26133317-25.06266604z" fill="#4f5253" fill-rule="evenodd"/><path d="M261.70319346.00054333l-98.64799754 43.9399989 14.04133299 24.80666605 11.63733304 8.92133311 39.23199902-7.59333314 43.69066557-23.47333275-1.33066663-20.38666616z" fill="#73cacb"/><path d="M271.6571932 46.60134217l21.18266615 18.6986662 29.23599926 12.36799969 8.01866647-49.1573321L261.70386012.00001z" fill="#93d4d5"/><path d="M163.05479592 43.9404089l6.02266652 58.78933187 13.61199966-11.68666638 6.04399985-13.37599967z" fill="#359395" fill-rule="evenodd"/><path d="M263.72226007 9.45040976l-3.94133323 1.6093333 2.12799995 11.27999971-9.45599977 3.79333324 1.41999997 7.47599982 9.82666642-3.72266658 2.23599994 10.32533308 4.06266657-1.37866663.32799999-12.61733302z" fill="#29788b" fill-rule="evenodd"/><path d="M263.72226007 9.45040976l4.65466655 2.28933328 2.24666661 9.62399976 9.6253331 4.62133322-.132 6.7186665-7.88266647-3.52266658 2.17999995 11.06933305-4.4159999-1.4173333z" fill="#318ea5" fill-rule="evenodd"/><path d="M322.07612528 77.66760806l14.62133297 117.07999707-57.84666522 9.2973331-21.61199946 55.90933194-46.35333218-65.10666504-32.46799918-31.24266589 22.2466661-12.23733302 5.7213332 6.43999983 21.25866613-52.781332 19.09733286-11.47866639 23.58533274-10.4906664z" fill="#ffe6d6" fill-rule="evenodd"/><path d="M227.64426098 105.02640737l14.3386663 105.8373307 36.86799908-6.8186665-11.5879997 11.02666639 3.06399992 11.02533305-13.08799968 33.8573325-56.97199857-69.85466493-4.0999999-9.0773331-5.95199985-3.24933326-17.87599956-21.91733278 22.24799945-18.83333287 10.2346664 23.1106661 7.57733315-21.77866613zM312.38319219 108.2384073l-21.3533328 29.43866592-10.29733307 13.72799966-30.77333257-33.1333325z" fill="#f5cab3" fill-rule="evenodd"/><path d="M275.30879312 114.10907381l5.42399986 37.29599907 12.10666637-1.66666662-5.63866653-37.5813324z" fill="#fff1e8" fill-rule="evenodd"/><path d="M292.83985935 149.73787292l-5.26799987 8.06933313-6.83999983-6.4026665zM278.8506597 204.04533823l-8.5239998 22.05199945-39.37066567-15.12666629zM204.49999489 168.81080578l-4.22933323 21.2933328-10.05066642-12.3239997zM199.83332834 165.22120587l-7.83333314-13.573333-10.50133307 6.15866652z" fill="#c4937d" fill-rule="evenodd"/><path d="M267.26292665 93.54827433l6.8546665-23.47333275-2.45999994-23.47333275-82.92399793 31.0666659-39.38933235 49.85733208 39.81733234-9.2533331 38.4826657-13.245333 17.2013329-4.98399988z" fill="#4f5253" fill-rule="evenodd"/><path d="M227.64426098 105.02640737L206.1562615 162.8010726l-11.56933304-19.18133286-22.24799945 12.2359997-22.99466609-28.33066596z" fill="#2b2b2b" fill-rule="evenodd"/><path d="M271.65745988 46.60174217l50.4186654 31.06533255-54.81333196 15.88133294z" fill="#6f7173" fill-rule="evenodd"/><path d="M275.30879312 114.10907381l-1.2413333-8.25199979-24.1079994 12.41466636zM287.20079282 112.15694053l25.18266604-3.91866657-26.11199935-4.05066656z" fill="#4f5253" fill-rule="evenodd"/><path d="M276.56119309 173.51080566l12.35599969-7.69866647 13.521333 3.57733324-12.08666637 7.20133316z" fill="#1e7678" fill-rule="evenodd"/><path d="M239.88586067 507.8355973h-13.67199966l-11.7159997 10.78533307v4.39599989h36.91866574v-4.3959999z" fill="#3a9fb9" fill-rule="evenodd"/><path d="M298.4394592 278.6338697l-5.82933318 21.50799946 3.38266658 17.5133329 33.78533249-7.8559998 2.07999995-15.35066629z" fill="#ffe6d6" fill-rule="evenodd"/><path d="M295.9923926 317.65466873l-10.55599974 14.03866631-4.06533323-12.89466634z" fill="#ebbea7" fill-rule="evenodd"/><path d="M249.71679376 309.40986893l24.40133272-14.96133296 6.6146665 9.23999977.63866665 15.11066629-31.65466587 6.68799983z" fill="#f5cab3" fill-rule="evenodd"/><path d="M274.11812648 294.44880264l18.49333287 5.69333319 3.38133325 17.51199956-14.62133297 1.1453333z" fill="#fde9e0" fill-rule="evenodd"/><path d="M316.36652542 499.99533083l-19.86666617 13.96666632h-13.001333v4.23866656h52.75333201v-9.57599976z" fill="#3a9fb9" fill-rule="evenodd"/><path d="M266.15999335 172.19293903l25.57733269 10.86933306 19.28666618-17.84133289-20.67199948 10.03599975z" fill="#4fa8a9" fill-rule="evenodd"/><g clip-path="url(#e)" transform="matrix(1.33333 0 0 -1.33333 0 533.33333)"><path d="M203.3536 300.5102c0-2.361-1.914-4.276-4.276-4.276-2.361 0-4.275 1.915-4.275 4.276 0 2.361 1.914 4.276 4.275 4.276 2.362 0 4.276-1.915 4.276-4.276M230.0003 304.7859c0-2.361-1.914-4.276-4.276-4.276-2.361 0-4.275 1.915-4.275 4.276 0 2.361 1.914 4.276 4.275 4.276 2.362 0 4.276-1.915 4.276-4.276" fill="#2b2b2b" fill-rule="evenodd"/></g></svg>