<svg xmlns="http://www.w3.org/2000/svg" viewBox="0 0 533.33331 533.33331" height="533.33331" width="533.33331"><defs><clipPath id="a"><path d="M0 400h400V0H0z"/></clipPath><clipPath id="b"><path d="M96.5558 16.4557H312.965V.0218964H96.5558z"/></clipPath><clipPath id="c"><path d="M0 400h400V0H0z"/></clipPath></defs><g clip-path="url(#a)" transform="matrix(1.33333 0 0 -1.33333 0 533.33333)"><g clip-path="url(#b)" opacity=".10000598"><path d="M312.9648 8.4419l-110.873 8.014-105.536-6.35L196.8998.0219z" fill-rule="evenodd"/></g></g><path d="M309.06559227 506.39919734l1.41599997 14.17599965h20.93599947l6.91999983-3.39199992 5.91199985-5.72533319-18.51333287-18.61733287-9.03199977-.30799999z" fill="#ffe6d6" fill-rule="evenodd"/><path d="M310.48132557 520.57546365l-1.10666664-11.07866639 12.24933303 11.0786664 30.05466591-15.19599963 13.50666633 15.19599962z" fill="#f5cab3" fill-rule="evenodd"/><path d="M232.88892751 492.53266435l9.2773331 11.75466638 3.1426666 18.65199953h-16.54666626l-7.69599981-6.6866665-8.17466646-9.85333309 6.3186665-10.94533306z" fill="#ffe6d6" fill-rule="evenodd"/><path d="M213.70506132 505.54266403l-16.68399958 17.39599956h48.2879988l-2.13066662-12.63733301-8.73466645 12.63733301z" fill="#f5cab3" fill-rule="evenodd"/><path d="M321.08319197 488.16106446l-7.38533315.71733332-6.04799984 3.34533325 1.41599996 14.17599964 16.67066625-13.55866632zM239.80666067 490.2914644l-5.94133318-3.67066657-9.66266643.18666667-4.99199987 8.64666645 22.95466609 8.8333331z" fill="#c4937d" fill-rule="evenodd"/><path d="M326.52092517 378.91840053l-31.03466589 12.53866635-30.4226659 17.1773329 19.07733285 51.1586654 29.4533326-6.21333319 28.62799928-11.00799972z" fill="#bf8f00" fill-rule="evenodd"/><path d="M284.1415929 459.79266517l6.75333316 19.24799952 26.30133268-16.08533293 25.02666604-20.3839995z" fill="#e5c82e" fill-rule="evenodd"/><path d="M290.8954594 479.04053136l51.32799871-36.46933242 10.13066641 36.1319991-30.6426659 3.00533325z" fill="#ccad14" fill-rule="evenodd"/><path d="M290.8954594 479.04053136l6.75333316 16.20933293 54.70533196-16.54666626z" fill="#e5c82e" fill-rule="evenodd"/><path d="M265.06306004 408.63426645l-4.22133323 49.47066543-30.4866659-3.37333325-36.03733243-8.1079998 5.23466653-65.00399837 38.59333237 13.26399967z" fill="#bf8f00" fill-rule="evenodd"/><path d="M194.3182618 446.62359883l33.8653325 19.60933285 30.96933255 12.80799968 1.6893333-20.93599948z" fill="#e5c82e" fill-rule="evenodd"/><path d="M194.3182618 446.62359883l-3.3759999 32.75466585 37.2293324 1.70666663 30.98133255-2.04399995z" fill="#ccad14" fill-rule="evenodd"/><path d="M259.15346019 479.04053136l-68.2119983.33733332 66.52399834 14.8586663z" fill="#e5c82e" fill-rule="evenodd"/><path d="M294.7946593 228.72533762l13.84133298 4.63199988 7.67066648 7.30933315 10.04533308-1.37999997 18.90933286 19.24799952-5.43066653 17.65199956-13.81599965 20.50666616-120.21466367 3.03866659-14.38399964-12.1319997-10.94266639-14.8826663 27.014666-33.76799915 10.28933307-1.3293333 5.19599987-5.29599987 15.48399961-6.62533317 23.9039994 17.19199957z" fill="#474747" fill-rule="evenodd"/><path d="M326.52092517 378.91840053l-61.4573318 29.71599925-65.51066503-27.01466599 6.24666652-81.88799795 10.19333307-11.58933304 10.23733308-5.79999986 80.02933133-4.39066656 9.4573331 5.00666655 10.29733308 13.73466632z" fill="#856400" fill-rule="evenodd"/><path d="M158.86239603 270.01600325l-65.5093317 9.79199975-20.9373328 56.0559986 29.71599925 46.93599883 59.76933184 20.93733281 59.26399852-13.205333-5.57199986-56.01866527-42.21066561-8.1039998z" fill="#e5c82e" fill-rule="evenodd"/><path d="M143.66666308 298.71853587l-7.1866665 7.03066649-10.37199973 6.47733317 14.51999963 22.96133276 16.2079996-13.50666633-8.56399979-12.89066635z" fill="#f5cab3" fill-rule="evenodd"/><path d="M151.72186287 325.94320185l-5.3533332-16.0799996-20.26133282 2.36399994 17.55999956-13.509333 13.16799967 22.9626661z" fill="#c4937d" fill-rule="evenodd"/><path d="M146.369063 309.86320225l-20.26133282 2.36399994-5.73866652 21.6853328 6.31999984 3.47733324z" fill="#ffe6d6" fill-rule="evenodd"/><path d="M114.51413047 300.10946916l-12.67866635-4.65599988-4.65599988 12.67999968 12.67866635 4.65599989z" fill="#474747" fill-rule="evenodd"/><path d="M106.41093067 322.39640194L93.730931 317.74040206l-4.65599988 12.67999968 12.67866635 4.65599988z" fill="#802d00" fill-rule="evenodd"/><path d="M114.51413047 347.38560132l-12.67866635-4.65599989-4.65599988 12.67866635 12.67866635 4.65733322z" fill="#a84000" fill-rule="evenodd"/><path d="M135.11212996 364.2692009L122.4334636 359.613201l-4.65599989 12.67999968 12.67866635 4.65466655z" fill="#cc4e00" fill-rule="evenodd"/><path d="M158.07452938 372.71146735l-12.67866635-4.65733322-4.65599988 12.67999968 12.67866635 4.65599989z" fill="#ed8600" fill-rule="evenodd"/><path d="M184.0771954 373.38706733l-12.67999968-4.65733321-4.65599989 12.67999968 12.67866635 4.65599988z" fill="#ff9b01" fill-rule="evenodd"/><path d="M207.03852816 360.216801l-12.67866635-4.65599989-4.65599989 12.67999968 12.67866635 4.65466655z" fill="#ffd557" fill-rule="evenodd"/><path d="M205.79959486 299.73186917l-32.41733253 26.67733267-8.9533331-34.7746658 16.04533292-18.91733286zM371.60145738 280.9905363l-26.33999934-22.45599943-19.24666619 38.15866571 19.41599951 6.58399984 17.75466623-6.19466651z" fill="#ffe6d6" fill-rule="evenodd"/><path d="M326.35212517 239.28733735l-.33733332 57.4053319-19.75466617-18.74133287 2.3706666-44.59466555zM222.97252776 232.3240042l3.25733325 50.01733207-20.43066615 17.39066624 1.68933329-60.78266515z" fill="#bf8f00" fill-rule="evenodd"/><path d="M293.081326 352.57866785H239.0626607V297.5253359h54.01866532zM326.19825851 326.58013517l-6.09333318-4.3919999-6.07733318 11.1426664 8.1039998-1.3493333 4.1599999 9.79733309z" fill="#9e7700" fill-rule="evenodd"/><path d="M290.7266594 359.33253435l-8.77999978 7.09066649 1.35066663 7.09199982 11.48133305 8.44266646 4.39066655-17.89733289zM239.06226069 346.837868l14.18266631-4.72666655-1.35066663-11.48133305 6.75333316-2.70133326-4.0519999-11.1426664-3.71466657 1.3493333.33733333 5.40399987-8.77999978-.67599998-3.37599992 8.44266645-1.2613333 6.92133316z" fill="#ccad14" fill-rule="evenodd"/><path d="M266.75146 363.04706759l-8.77999978-2.3626666 2.02666661 9.45333309 6.41599984-1.01199997z" fill="#9e7700" fill-rule="evenodd"/><path d="M239.06226069 331.30560172l-11.48133305 1.68799996 5.40266654 13.84399965h6.07866651z" fill="#b58b00" fill-rule="evenodd"/><path d="M146.369063 309.86320225l-5.74133318 25.32399937-5.84666652-9.24399977z" fill="#c4937d" fill-rule="evenodd"/><path d="M134.78159663 325.94320185l-8.0919998 11.44666638 13.93866632-2.20133328z" fill="#ccae2d" fill-rule="evenodd"/><path d="M345.43119136 303.27746908l47.0026655-40.57066565 15.60533294-.88799998-2.64133327 18.37333288-26.390666 33.92399915z" fill="#f5cab3" fill-rule="evenodd"/><path d="M392.43359019 262.7074701l12.96399968 17.48399956 11.88933303-4.15733323-9.4573331-24.47866605z" fill="#c4937d" fill-rule="evenodd"/><path d="M427.87665597 244.60320388l14.78933296 21.27066614-3.29466658 4.59999988-20.87733281-8.65466645-15.99466627-18.92933286z" fill="#f5cab3" fill-rule="evenodd"/><path d="M350.89932456 204.2884049l61.6853318 66.66399833 6.81733315-5.35599987 3.82266658-7.20133315z" fill="#474747" fill-rule="evenodd"/><path d="M436.82892241 288.15333613l1.86799996 10.01066642 16.88266624 2.3626666-3.71466657-8.77866644-7.52533315-1.83866662-4.49466655-3.42266659z" fill="#bf8f00" fill-rule="evenodd"/><path d="M439.37132235 270.47360324l4.96799987 19.43599951-18.13733288-4.2399999 5.95466652-8.8573331z" fill="#856400" fill-rule="evenodd"/><path d="M404.61892322 262.3438701l21.58266612 23.32533276 13.169333-15.19599962-16.14666625-12.07866637z" fill="#8f8f8f" fill-rule="evenodd"/><path d="M399.85545667 272.71706985l4.76399988-10.37333308 14.93599963 1.76799996 3.66933324-5.71733319-20.72533282-15.50399961-10.06533308 19.81733284z" fill="#ffe6d6" fill-rule="evenodd"/><path d="M177.71959556 122.8962736l72.60666485-17.60399957 75.6119981-22.1906661-1.03866663-10.89199974-6.17066651-15.92533293-71.91866487 32.59999918z" fill="#ccad14" fill-rule="evenodd"/><path d="M318.72892537 56.2840086l-76.74933142 19.01733285-77.5253314 24.81333271 3.30799992 9.95999975 9.95733309 12.82133302z" fill="#e5c82e" fill-rule="evenodd"/><path d="M233.49959416 59.21614185l-7.00666649 23.27333275 30.70133257-8.72266644zM318.72892537 56.2840086l12.27866635 4.10266656 13.38666634 9.73866642-15.60799961 24.65999938-3.44133325-7.02399982.59333332-4.65866655z" fill="#755800" fill-rule="evenodd"/><path d="M318.72892537 56.2840086l-1.57866663-12.5359997 3.01999992-16.29999959 15.68133294 23.33733275 8.54266646 19.33999952z" fill="#ccad14" fill-rule="evenodd"/><path d="M320.17052533 27.44760931l41.23599897 25.66399936-17.01333291 17.01466624z" fill="#bf8f00" fill-rule="evenodd"/><path d="M318.72892537 56.2840086l1.4413333-28.83599929.8653333-15.8599996-29.86133258 31.37733255.72933331 20.93999948z" fill="#856400" fill-rule="evenodd"/><path d="M271.9211932 15.34734295l-2.2146666 12.10133303 11.9879997 10.39333307 11.37066637 5.7533332 18.56399954-21.24266614L277.78252639.05401z" fill="#bf8f00"/><path d="M293.06465934 43.59587558l-23.35733275-16.1479996-7.29333315 18.20799955-5.21866654 28.11066596 34.70799914-9.86133309z" fill="#ccad14" fill-rule="evenodd"/><path d="M230.48999424 25.1405427l25.85466602 2.81733327 13.36266633-.50933332L277.78199306.05387667z" fill="#ccad14"/><path d="M269.7077266 27.44760931l-39.2186657-2.3066666 8.30933313 18.7386662 18.39599954 29.88666591z" fill="#bf8f00" fill-rule="evenodd"/><path d="M157.50999606 132.49067335l29.76799926 6.5866665-4.65866655-10.4546664-4.89999988-5.72666652-9.87866642 2.38399994z" fill="#755800" fill-rule="evenodd"/><path d="M257.1949269 73.76654149l-22.43599944-12.34533303-14.00399965-5.99066651-8.43199978-6.35599984 3.5359999-13.70266633 5.65066653-10.9306664 3.50133325-9.39333309 5.47866653 10.09199975z" fill="#ccad14" fill-rule="evenodd"/><path d="M212.32252803 49.07467544L199.405195 44.97334221l-12.89066634-10.17333308-2.73199993-13.40799966 37.72666572 3.04933325z" fill="#bf8f00" fill-rule="evenodd"/><path d="M212.32252803 49.07467544l-25.80799936-14.27466631-12.97599968 17.30266623 8.69999979 16.90533291 14.6026663 21.90666612 11.9919997-26.13599934zM152.66159618 103.62414074l-5.85999985 33.94933249 30.9186659-14.67733297-13.26666634-22.78133276-5.63599986-.30533333z" fill="#856400" fill-rule="evenodd"/><path d="M173.538129 52.10267536l-11.69999971 13.35199967-4.1599999 10.00533308 13.94133299 6.13066652 25.2213327 9.32399976z" fill="#bf8f00" fill-rule="evenodd"/><path d="M173.538129 52.10267536l-41.2373323 13.841333 25.3773327 9.51599975zM157.6777294 75.46027478l-22.78133277 33.4493325 29.5573326-8.79466645 32.38666585-9.2013331z" fill="#ccad14" fill-rule="evenodd"/><path d="M212.32252803 49.07467544l-15.48133295 41.83999895 17.5453329 22.13733278 12.10666636-30.5626659 8.26533312-21.06799947z" fill="#bf8f00" fill-rule="evenodd"/><path d="M325.93825852 83.10214126l25.37599936 104.09866406-46.1386655 16.43733292-6.10399986 10.94799973-4.27733322 14.13866631-19.84266617 13.76799966-16.49066626 17.08799957-28.73199928-53.029332-19.56399951-28.77466595-15.63999961-26.43333268-3.30666658-13.01199967-13.49866633-15.43466628z" fill="#ffe6d6" fill-rule="evenodd"/><path d="M223.26946108 162.29173928l-7.85733313-13.21866634-12.76533302 6.60933317 11.07733306 5.2213332z" fill="#c4937d" fill-rule="evenodd"/><path d="M236.41786076 107.13654065l40.17333233 106.45333068 16.47333292-.07733333 1.73066662 15.21333295-36.33466576 30.8546659-25.13866604-42.57999894-2.83199993-9.0453331-4.63866655-3.60799992-15.68666627-26.570666 24.2519994-14.40799964-7.9639998-15.09599962 13.265333-7.78666648-17.00533291-29.66933259zM260.49932682 122.69960693l14.11066631-.092 16.1479996 21.91599946-3.09066659-25.83199936-8.9533331-13.10266634zM297.23639257 100.20347416l6.41733317 34.19599915 6.71333317-23.90266607 11.6599997-7.12933316z" fill="#f5cab3" fill-rule="evenodd"/><path d="M278.7146597 105.58880736l-22.07999945 8.2799998 3.86533324 8.83066644zM297.23639257 100.20347416l22.73599943-6.2546665 2.05466662 9.41866642z" fill="#856400" fill-rule="evenodd"/><path d="M286.4874595 168.82480578l17.8813329-12.11866636 19.16933284 1.29199996-15.33333295 11.47599972z" fill="#755800" fill-rule="evenodd"/><path d="M328.82159178 154.61600613l-21.24799947 13.59866633-28.35066596.81999998 30.27866591 7.49733315z" fill="#b58b00" fill-rule="evenodd"/><path d="M222.71319443 110.81600723l17.00399958 29.67066592-13.26399967 7.78533314-6.92133316-11.24666638-25.00666604 14.3186663-16.80533292-28.44799928z" fill="#856400" fill-rule="evenodd"/><path d="M305.17625904 203.63773824l-38.92933236 13.553333 28.54799928 11.53466638zM234.27519414 171.50240571l-5.93733318 23.31733275-12.32266636-13.58666632zM252.45012702 188.54453862l-19.12799952 28.45466596-7.39999981-12.69599969 8.8373331-9.48399976z" fill="#c4937d" fill-rule="evenodd"/><path d="M219.64892784 180.19213883l8.68799978 14.6266663 14.62799964-8.68933312-8.68933312-14.6266663zm17.04266624-18.17466621l15.75866628 26.526666-26.52799934 15.7599996-15.75733294-26.52799933z" fill="#755800" fill-rule="evenodd"/><path d="M220.17012783 157.07400607l-6.44533317 3.82933324 12.0759997 20.32933283 6.4466665-3.82933324z" fill="#b58b00" fill-rule="evenodd"/><path d="M297.23639257 100.20347416l-18.52133287 5.3853332 12.04266636 38.9346657 18.16799955-5.47866654z" fill="#fff1e8" fill-rule="evenodd"/><path d="M308.92519228 139.04440652l-6.34399984 11.82266637-11.82266638-6.34399984z" fill="#c4937d" fill-rule="evenodd"/><g clip-path="url(#c)" transform="matrix(1.33333 0 0 -1.33333 0 533.33333)"><path d="M211.0176 299.9025c0-2.352-1.907-4.259-4.259-4.259-2.352 0-4.259 1.907-4.259 4.259 0 2.352 1.907 4.259 4.259 4.259 2.352 0 4.259-1.907 4.259-4.259M239.779 309.4241c0-2.352-1.907-4.259-4.259-4.259-2.352 0-4.259 1.907-4.259 4.259 0 2.352 1.907 4.259 4.259 4.259 2.352 0 4.259-1.907 4.259-4.259" fill="#2b2b2b" fill-rule="evenodd"/></g></svg>