<svg xmlns="http://www.w3.org/2000/svg" viewBox="0 0 533.33331 533.33331" height="533.33331" width="533.33331"><defs><clipPath id="a"><path d="M0 400h400V0H0z"/></clipPath><clipPath id="b"><path d="M91.2315 23.4437H318.21V0H91.2315z"/></clipPath><clipPath id="c"><path d="M0 400h400V0H0z"/></clipPath><clipPath id="d"><path d="M147.328 174.572h96.34v-30.8h-96.34z"/></clipPath><clipPath id="e"><path d="M0 400h400V0H0z"/></clipPath></defs><path d="M139.9895965 160.86707264l14.02533298-6.80133316 18.49733287 38.13999905-13.65999965 6.8986665z" fill="#4f5253" fill-rule="evenodd"/><path d="M179.9891955 148.68560628l-60.30666516 29.24799927 2.50533327 33.14399917 70.38399824-32.82133251z" fill="#858686" fill-rule="evenodd"/><path d="M122.18746361 211.07733806l17.80266622 2.60399993 64.61599839-28.60266595-7.88933314-8.78533311-7.23999982.208z" fill="#636363" fill-rule="evenodd"/><path d="M200.21026166 249.3161371l-27.69733264-57.11066524-13.661333 6.8986665 27.33333266 57.01466524z" fill="#4f5253" fill-rule="evenodd"/><path d="M179.9891955 148.68560628l7.16133315-.252h10.23866642l7.21733315 36.64533243-15.13066629-8.57733312z" fill="#6f7173" fill-rule="evenodd"/><g clip-path="url(#a)" transform="matrix(1.33333 0 0 -1.33333 0 533.33333)"><g clip-path="url(#b)" opacity=".10000598"><path d="M91.2315 9.1139l90.197 14.33 136.781-8.448-117.79-14.996z" fill-rule="evenodd"/></g></g><path d="M334.88159163 368.38626746l-14.03466632 36.1279991-13.74799965 16.81866624-2.5666666 25.18266604-9.03999978 23.26933275-16.53999959 7.97333313-20.47066615 5.5693332 8.51066645-70.32799824z" fill="#856400" fill-rule="evenodd"/><path d="M262.3234601 467.33093165l39.39999902-13.58799966-6.2306665 16.04266627-17.92666623 13.54266632h-19.08399952v-6.76533316z" fill="#9d782c" fill-rule="evenodd"/><path d="M295.49239261 469.78506492l30.70933257 35.1066658-36.63599909 4.22399989-40.57866565-4.2239999v-18.08933288z" fill="#755924" fill-rule="evenodd"/><path d="M248.92666044 513.33866383h77.27599807v-8.44666645h-77.27599807z" fill="#b38c2e" fill-rule="evenodd"/><path d="M310.80919223 414.28199964l-17.4573329-2.05999995-9.22799977 35.8599991 20.4079995-1.56666662 6.11999984-15.7559996z" fill="#9e7900" fill-rule="evenodd"/><path d="M293.351726 412.22226636l17.20666624 18.49999954 10.28933307-26.20799935z" fill="#b58b00" fill-rule="evenodd"/><path d="M273.89852649 419.13493285l-15.41733295 64.19333173-10.98133306 3.91733324-40.379999 7.58266648-8.01733312-99.37866419z" fill="#9e7700" fill-rule="evenodd"/><path d="M334.88159163 368.38626746l-60.98266514 50.74799873-74.79599813-23.68533274 41.70799895-10.74799973z" fill="#bf8f00" fill-rule="evenodd"/><path d="M215.57946128 208.11667146l63.52133174 14.88133297 38.11733238 105.4253307 9.2093331 19.03866618-104.16933072 5.7853332-24.48533272 6.67733316-1.33599997-19.58799951z" fill="#e5c82e" fill-rule="evenodd"/><path d="M188.86866194 225.03440437l26.710666-16.9173329 17.55999956 76.82399807-15.33333295 1.08266664-19.11999952-35.43333244zM196.43692842 340.3372015l74.75733147-51.26933206 40.07733233 16.1079996 16.2039996 43.38133225-104.74133072 7.30933315-24.96133271 4.05866656z" fill="#bf8f00" fill-rule="evenodd"/><g clip-path="url(#c)" transform="matrix(1.33333 0 0 -1.33333 0 533.33333)"><g clip-path="url(#d)" opacity=".19999701"><path d="M199.4348 156.9714l18.343-11.223 25.89-1.977-3.722 9.965-33.238 20.836-30.067-13.228-29.313-16.597z" fill="#2b2b2b" fill-rule="evenodd"/></g></g><path d="M320.92932531 256.2384036l11.35333305 5.49199986-6.48799984 15.84666627-14.52399964 27.59866597-.46133332-33.00266584 1.73466663-12.63199968z" fill="#ccad14" fill-rule="evenodd"/><path d="M266.77572666 277.56626973l23.59466608 61.43599846 29.5573326-10.6506664-23.61733275-62.41733177z" fill="#4f5253" fill-rule="evenodd"/><path d="M327.47519181 348.55746795l-31.16533255 1.4573333-8.71599978 8.31866646-10.02799975-7.44266648-40.61733232 1.89866662.07733333 16.51333292 2.5946666 17.77866622 41.29066564-8.1039998 6.6826665-6.97733316 11.74266637 3.36133325 35.54533244-6.97466649z" fill="#856400" fill-rule="evenodd"/><path d="M277.56665973 350.8906679l3.34266658 28.0879993 18.4266662-3.61599992-3.02533325-25.34799936z" fill="#ccad14" fill-rule="evenodd"/><path d="M326.33079184 82.04427462l4.0679999 49.98533208-3.52399991 47.8519988-39.09199902 11.67066638-18.68533287 20.11466616-29.38799927.78933332-24.12933273-4.3399999-15.72266627-36.8173324-12.70666635-22.86533277-12.77199968-26.814666-5.55466653-42.7106656 40.55733232 14.5866663 56.98533191-5.25466653 13.15999967-19.16799952 15.92266627 14.34799964z" fill="#ffe6d6" fill-rule="evenodd"/><path d="M222.25319444 93.84734099l6.31066651 49.84399875-10.7586664 7.8639998-11.52266637-5.3133332-4.94799988-20.03866616 10.23866641-.89066665-2.19199994-30.1506659z" fill="#f5cab3" fill-rule="evenodd"/><path d="M273.41839316 138.55533987l-18.10933288-27.13199932-33.05599917-17.57599956 48.2719988-9.33466644zM298.71039253 128.52800679l7.9759998-26.30799935 15.82533294-19.78266617-33.48799916-1.92799995z" fill="#f5cab3" fill-rule="evenodd"/><path d="M330.39932507 132.03054003L187.14999532 148.4332063l28.42933262 59.6839985 19.76799951 4.59333323 17.08799957 2.85199992 26.66533267 7.43599982 5.21466654-19.38266618 5.61066652-10.6346664 44.96266554-5.78799986z" fill="#cca997" fill-rule="evenodd"/><path d="M228.56412762 143.6912064l7.15999982 55.61999862 13.88799965 4.41199989 5.05466654 14.6106663-4.36266655 16.04933293-34.72399914-26.26666601-20.20666616-42.42133227-.96666664-8.21866646-7.25599982-9.04399978 19.13199952-2.1906666z" fill="#ba9888" fill-rule="evenodd"/><path d="M289.92572609 192.9805385l-61.27066514 7.20533316 21.6493328 34.19733248 28.79599927-11.38399971zM206.28279484 146.24227301l-10.90933306 19.45333285-8.22266646-17.26266624zM242.29572728 158.3614727l57.03999857 7.46266649-.58133332 4.45333322-57.0413319-7.46399981zM273.41839316 138.55533987l14.44933298 7.71866647 11.5319997-10.6946664-13.07199966.096z" fill="#a67862" fill-rule="evenodd"/><path d="M222.25319444 93.84734099l46.84399883 8.07866646-1.3013333-12.73333301-18.14266621.236zM295.9879926 99.8676075l-1.49066663-14.5426663 12.2639997-3.16799992 15.74933293.28133333z" fill="#484748" fill-rule="evenodd"/><path d="M238.78772736 109.6077406l21.4693328 2.35999993-.51466665 4.67733322-21.46799947-2.36133327z" fill="#2b2b2b" fill-rule="evenodd"/><path d="M209.38159477 95.16174095l2.19199994 30.15066592-10.23999974.89066664-3.8319999-14.47333297-23.12533276 9.88799975-19.52799951-40.99866564 30.96933255 1.19066664z" fill="#484748" fill-rule="evenodd"/><path d="M182.63572877 125.75827352l8.90399977-3.56133324 5.8493332 17.04799957z" fill="#c4937d" fill-rule="evenodd"/><path d="M204.89039488 41.05680897l-19.71866618.63199999-17.2773329 4.0719999-7.6319998 15.54266627-5.4133332 19.31599952 32.26933252-22.80399943z" fill="#9e7700" fill-rule="evenodd"/><path d="M262.62039343.00054333l-44.63466555 18.48399954-50.09199874 27.27733265 20.55599948-2.6146666 16.4399996-2.08933328 51.62666537-2.05599995 62.06533178-9.01999977L262.64039343.00054333z" fill="#856400"/><path d="M262.57252677.00054333l-79.49599801 6.41199984-15.1826663 39.34933235L262.6218601.00054333z" fill="#bf8f00"/><path d="M167.89372914 45.76134219l-24.3799994-22.66799943-30.36799924 27.58666597 25.75599936-.192z" fill="#9e7700" fill-rule="evenodd"/><path d="M113.14626384 50.6798754L68.45026496 92.16787436l65.96399835-29.35466593 33.47999916-17.05199957z" fill="#bf8f00" fill-rule="evenodd"/><path d="M68.45026496 92.1684077l86.3986645-11.54933305 13.045333-34.85733246z" fill="#755800" fill-rule="evenodd"/><path d="M204.89039488 41.05680897l140.50399649-13.68666632 5.13199987 52.18133203-56.02933194 5.77333319-14.97066629-16.25333293-11.73066637 20.12133283-58.4146652 5.96933318-4.77466656-30.99999922z" fill="#e5c82e" fill-rule="evenodd"/><path d="M220.92999448 52.1772087l51.5399987-5.13199988-15.18399961 28.65599929-34.00399915 3.20799992zM334.28505831 40.9857423l-51.56399871 4.88533322 20.41733282 25.1973327 33.98399915-3.39733325z" fill="#474747" fill-rule="evenodd"/><path d="M209.38159477 95.16174095l-54.53333197-14.5426663 50.04266541-39.56266568z" fill="#ccad14" fill-rule="evenodd"/><g clip-path="url(#e)" transform="matrix(1.33333 0 0 -1.33333 0 533.33333)"><path d="M234.7928 317.9623c0-2.639-2.139-4.778-4.778-4.778s-4.779 2.139-4.779 4.778 2.14 4.778 4.779 4.778 4.778-2.139 4.778-4.778" fill="#2b2b2b"/><path d="M209.6451 348.1961l11.228-12.19 3.677-37.691-19.486-2.232-4.081 37.036z" fill="#fff1e8" fill-rule="evenodd"/><path d="M130.2994 180.807l-17.362 35.726 28.714 14.691 21.703-45.742-11.604-10.184z" fill="#ccad14" fill-rule="evenodd"/><path d="M175.7082 158.7702l-28.381-14.023-17.028 36.06 33.055 4.675 11.352-12.333z" fill="#e5c82e" fill-rule="evenodd"/><path d="M200.0818 191.8253l-36.728-6.344 12.354-26.711 31 15.802 1.467 8.627z" fill="#ffe6d6" fill-rule="evenodd"/><path d="M206.7083 174.572l26.745-3.454-6.042 20.131-5.178 9.3-9.302-.549-12.849-8.175z" fill="#f5cab3" fill-rule="evenodd"/><path d="M233.4534 171.1183l7.674 15.866-.43 20.837-9.319-1.071-9.146-6.201z" fill="#c4937d" fill-rule="evenodd"/><path d="M193.8612 37.5042l6.559-22.503h-45.708l.628 13.877z" fill="#846528" fill-rule="evenodd"/><path d="M154.712 8.667h45.708v6.335h-45.708z" fill="#ccae2d" fill-rule="evenodd"/><path d="M196.7426 49.5018l-42.59-5.903 1.188-14.72 38.521 8.625z" fill="#bf8f00" fill-rule="evenodd"/><path d="M177.7114 135.4079l-11.018-.343 2.741-44.18 5.272-48.307 11.529 5.467z" fill="#ccad14" fill-rule="evenodd"/><path d="M135.8639 107.7415l10.128-12.371 20.702 39.694-29.248-8.233z" fill="#ccad14" fill-rule="evenodd"/><path d="M131.4467 159.8398l6.531-3.212-3.766-12.856-7.594-5.19v10.751zM100.1916 154.9925l7.808-.324 11.139-16.087-10.974-1.092z" fill="#4f5253" fill-rule="evenodd"/><path d="M134.2118 143.7716l24.468-39.092-1.876-6.783-19.827 22.937-9.291 20.859z" fill="#858686" fill-rule="evenodd"/><path d="M110.1993 139.7534l6.554 4.304 6.554 4.304-10.008 15.239 18.147-3.761-3.76-18.147 29.118-43.796-6.554-4.304-6.554-4.304-29.118 43.796-18.147 3.761 3.76 18.147z" fill="#6f7173" fill-rule="evenodd"/><path d="M174.7066 42.5779l-47.078 2.337-6.01 77.462 24.373-25.042 20.702 37.73z" fill="#e5c82e" fill-rule="evenodd"/><path d="M273.2052 200.1755l13.354 10.351v15.355l-11.352-11.184z" fill="#f5cab3" fill-rule="evenodd"/><path d="M187.7282 224.2127l86.143 34.057 7.052-15.543 5.636-16.845-86.477-34.056z" fill="#737474" fill-rule="evenodd"/><path d="M273.871 258.2694l14.024-7.346 3.348-5.96 1.326-5.726-6.01-13.355z" fill="#4f5253" fill-rule="evenodd"/><path d="M287.8951 250.9236l12.303 4.922.208-6.924-2.378-7.487-5.459-2.197z" fill="#484748" fill-rule="evenodd"/><path d="M300.1985 255.8456l10.158 4.063.494-6.205-2.661-8.178-10.162-4.091z" fill="#737474" fill-rule="evenodd"/><path d="M310.3565 259.9088l10.017 4.007-.517-6.804-1.647-7.553-10.02-4.034z" fill="#484748" fill-rule="evenodd"/><path d="M320.3734 263.9157l9.661 3.864-.142-6.513-2.017-7.818-9.666-3.89z" fill="#737474" fill-rule="evenodd"/><path d="M330.0346 267.7797l9.607 3.843-.281-6.427-1.874-7.878-9.473-3.826z" fill="#484748" fill-rule="evenodd"/><path d="M339.6421 271.6231l9.02 3.675-2.337-14.358-8.839-3.622z" fill="#737474" fill-rule="evenodd"/><path d="M233.4534 171.1183l20.225 41.815 16.44 2.097 3.087-14.855-9.022-35.393z" fill="#f5cab3" fill-rule="evenodd"/><path d="M253.6779 212.9332l15.798 7.396 17.083 5.553-13.354-25.707z" fill="#c4937d" fill-rule="evenodd"/><path d="M253.6779 212.9332l4.826 20.57 20.992 10.409 7.063-18.03z" fill="#ffe6d6" fill-rule="evenodd"/><path d="M221.8267 223.3063l-20.879-7.954-1.186 3.115 20.878 7.954zM223.9644 217.6949l-20.879-7.954-1.186 3.115 20.878 7.954zM226.1021 212.0835l-20.879-7.954-1.186 3.115 20.878 7.954z" fill="#4f5253" fill-rule="evenodd"/></g></svg>